<svg width="193" height="61" viewBox="0 0 193 61" fill="none" xmlns="http://www.w3.org/2000/svg">
<path d="M186.5 1H6.5C3.46243 1 1 3.46243 1 6.5V54.5C1 57.5376 3.46243 60 6.5 60H186.5C189.538 60 192 57.5376 192 54.5V6.5C192 3.46243 189.538 1 186.5 1Z" stroke="white"/>
<path d="M66.5639 17.108C67.1159 17.244 67.5479 17.492 67.8599 17.852C68.1799 18.212 68.3399 18.644 68.3399 19.148C68.3399 19.636 68.1879 20.064 67.8839 20.432C67.5799 20.8 67.1759 21.084 66.6719 21.284C66.1679 21.476 65.6199 21.572 65.0279 21.572C64.4679 21.572 63.9159 21.484 63.3719 21.308C62.8359 21.124 62.3519 20.852 61.9199 20.492L62.2439 19.856C62.6119 20.168 63.0319 20.408 63.5039 20.576C63.9759 20.736 64.4519 20.816 64.9319 20.816C65.3879 20.816 65.8079 20.744 66.1919 20.6C66.5759 20.456 66.8799 20.252 67.1039 19.988C67.3359 19.716 67.4519 19.396 67.4519 19.028C67.4519 18.54 67.2599 18.164 66.8759 17.9C66.4919 17.636 65.9519 17.504 65.2559 17.504H63.4559V16.784H65.2079C65.7999 16.784 66.2599 16.66 66.5879 16.412C66.9239 16.156 67.0919 15.804 67.0919 15.356C67.0919 14.86 66.8799 14.472 66.4559 14.192C66.0319 13.904 65.4999 13.76 64.8599 13.76C64.4599 13.76 64.0559 13.82 63.6479 13.94C63.2399 14.052 62.8519 14.224 62.4839 14.456L62.1839 13.724C63.0159 13.228 63.9159 12.98 64.8839 12.98C65.4519 12.98 65.9719 13.072 66.4439 13.256C66.9159 13.44 67.2879 13.704 67.5599 14.048C67.8399 14.392 67.9799 14.796 67.9799 15.26C67.9799 15.708 67.8559 16.096 67.6079 16.424C67.3599 16.744 67.0119 16.972 66.5639 17.108ZM72.5128 15.14C73.3368 15.14 73.9688 15.348 74.4088 15.764C74.8488 16.172 75.0688 16.78 75.0688 17.588V21.5H74.2528V20.516C74.0608 20.844 73.7768 21.1 73.4008 21.284C73.0328 21.468 72.5928 21.56 72.0808 21.56C71.3768 21.56 70.8168 21.392 70.4008 21.056C69.9848 20.72 69.7768 20.276 69.7768 19.724C69.7768 19.188 69.9688 18.756 70.3528 18.428C70.7448 18.1 71.3648 17.936 72.2128 17.936H74.2168V17.552C74.2168 17.008 74.0648 16.596 73.7608 16.316C73.4568 16.028 73.0128 15.884 72.4288 15.884C72.0288 15.884 71.6448 15.952 71.2768 16.088C70.9088 16.216 70.5928 16.396 70.3288 16.628L69.9448 15.992C70.2648 15.72 70.6488 15.512 71.0968 15.368C71.5448 15.216 72.0168 15.14 72.5128 15.14ZM72.2128 20.888C72.6928 20.888 73.1048 20.78 73.4488 20.564C73.7928 20.34 74.0488 20.02 74.2168 19.604V18.572H72.2368C71.1568 18.572 70.6168 18.948 70.6168 19.7C70.6168 20.068 70.7568 20.36 71.0368 20.576C71.3168 20.784 71.7088 20.888 72.2128 20.888ZM81.3569 18.236C82.2129 18.436 82.6409 18.952 82.6409 19.784C82.6409 20.336 82.4369 20.76 82.0289 21.056C81.6209 21.352 81.0129 21.5 80.2049 21.5H77.3369V15.188H80.1209C80.8409 15.188 81.4049 15.328 81.8129 15.608C82.2209 15.888 82.4249 16.288 82.4249 16.808C82.4249 17.152 82.3289 17.448 82.1369 17.696C81.9529 17.936 81.6929 18.116 81.3569 18.236ZM78.1649 17.996H80.0609C80.5489 17.996 80.9209 17.904 81.1769 17.72C81.4409 17.536 81.5729 17.268 81.5729 16.916C81.5729 16.564 81.4409 16.3 81.1769 16.124C80.9209 15.948 80.5489 15.86 80.0609 15.86H78.1649V17.996ZM80.1689 20.828C80.7129 20.828 81.1209 20.74 81.3929 20.564C81.6649 20.388 81.8009 20.112 81.8009 19.736C81.8009 19.36 81.6769 19.084 81.4289 18.908C81.1809 18.724 80.7889 18.632 80.2529 18.632H78.1649V20.828H80.1689ZM86.8097 15.14C87.6337 15.14 88.2657 15.348 88.7057 15.764C89.1457 16.172 89.3657 16.78 89.3657 17.588V21.5H88.5497V20.516C88.3577 20.844 88.0737 21.1 87.6977 21.284C87.3297 21.468 86.8897 21.56 86.3777 21.56C85.6737 21.56 85.1137 21.392 84.6977 21.056C84.2817 20.72 84.0737 20.276 84.0737 19.724C84.0737 19.188 84.2657 18.756 84.6497 18.428C85.0417 18.1 85.6617 17.936 86.5097 17.936H88.5137V17.552C88.5137 17.008 88.3617 16.596 88.0577 16.316C87.7537 16.028 87.3097 15.884 86.7257 15.884C86.3257 15.884 85.9417 15.952 85.5737 16.088C85.2057 16.216 84.8897 16.396 84.6257 16.628L84.2417 15.992C84.5617 15.72 84.9457 15.512 85.3937 15.368C85.8417 15.216 86.3137 15.14 86.8097 15.14ZM86.5097 20.888C86.9897 20.888 87.4017 20.78 87.7457 20.564C88.0897 20.34 88.3457 20.02 88.5137 19.604V18.572H86.5337C85.4537 18.572 84.9137 18.948 84.9137 19.7C84.9137 20.068 85.0537 20.36 85.3337 20.576C85.6137 20.784 86.0057 20.888 86.5097 20.888ZM91.6338 15.188H92.4858V17.984H96.4578V15.188H97.3098V21.5H96.4578V18.716H92.4858V21.5H91.6338V15.188ZM104.172 15.944H101.784V21.5H100.932V15.944H98.5434V15.188H104.172V15.944ZM107.575 15.14C108.399 15.14 109.031 15.348 109.471 15.764C109.911 16.172 110.131 16.78 110.131 17.588V21.5H109.315V20.516C109.123 20.844 108.839 21.1 108.463 21.284C108.095 21.468 107.655 21.56 107.143 21.56C106.439 21.56 105.879 21.392 105.463 21.056C105.047 20.72 104.839 20.276 104.839 19.724C104.839 19.188 105.031 18.756 105.415 18.428C105.807 18.1 106.427 17.936 107.275 17.936H109.279V17.552C109.279 17.008 109.127 16.596 108.823 16.316C108.519 16.028 108.075 15.884 107.491 15.884C107.091 15.884 106.707 15.952 106.339 16.088C105.971 16.216 105.655 16.396 105.391 16.628L105.007 15.992C105.327 15.72 105.711 15.512 106.159 15.368C106.607 15.216 107.079 15.14 107.575 15.14ZM107.275 20.888C107.755 20.888 108.167 20.78 108.511 20.564C108.855 20.34 109.111 20.02 109.279 19.604V18.572H107.299C106.219 18.572 105.679 18.948 105.679 19.7C105.679 20.068 105.819 20.36 106.099 20.576C106.379 20.784 106.771 20.888 107.275 20.888ZM117.932 18.692H116.564V21.5H115.712V18.692H114.344L112.412 21.5H111.392L113.66 18.248L111.572 15.188H112.496L114.344 17.96H115.712V15.188H116.564V17.96H117.932L119.792 15.188H120.716L118.628 18.26L120.896 21.5H119.876L117.932 18.692ZM122.314 15.188H123.166V20.204L127.378 15.188H128.134V21.5H127.282V16.484L123.082 21.5H122.314V15.188ZM135.015 15.944H132.627V21.5H131.775V15.944H129.387V15.188H135.015V15.944ZM136.247 15.188H137.099V20.204L141.311 15.188H142.067V21.5H141.215V16.484L137.015 21.5H136.247V15.188ZM151.67 18.236C152.526 18.436 152.954 18.952 152.954 19.784C152.954 20.336 152.75 20.76 152.342 21.056C151.934 21.352 151.326 21.5 150.518 21.5H147.65V15.188H150.434C151.154 15.188 151.718 15.328 152.126 15.608C152.534 15.888 152.738 16.288 152.738 16.808C152.738 17.152 152.642 17.448 152.45 17.696C152.266 17.936 152.006 18.116 151.67 18.236ZM148.478 17.996H150.374C150.862 17.996 151.234 17.904 151.49 17.72C151.754 17.536 151.886 17.268 151.886 16.916C151.886 16.564 151.754 16.3 151.49 16.124C151.234 15.948 150.862 15.86 150.374 15.86H148.478V17.996ZM150.482 20.828C151.026 20.828 151.434 20.74 151.706 20.564C151.978 20.388 152.114 20.112 152.114 19.736C152.114 19.36 151.99 19.084 151.742 18.908C151.494 18.724 151.102 18.632 150.566 18.632H148.478V20.828H150.482Z" fill="white"/>
<path d="M45.3119 30.0277C45.2757 26.0064 48.6086 24.05 48.761 23.9589C46.8735 21.2102 43.9478 20.8346 42.9197 20.8047C40.4624 20.5464 38.0789 22.2732 36.8272 22.2732C35.5505 22.2732 33.6229 20.8297 31.5455 20.8721C28.8722 20.9133 26.3712 22.4592 24.9996 24.8597C22.1688 29.7544 24.28 36.9474 26.9921 40.9039C28.3487 42.8428 29.934 45.005 32.009 44.9289C34.0389 44.8466 34.7972 43.6376 37.2469 43.6376C39.6742 43.6376 40.3862 44.9289 42.5024 44.8803C44.6811 44.8466 46.0527 42.9339 47.3619 40.9787C48.9297 38.7591 49.5593 36.5706 49.5843 36.4583C49.5343 36.4408 45.3544 34.8463 45.3119 30.0277ZM41.3144 18.202C42.4062 16.8383 43.1533 14.9829 42.9459 13.1002C41.3656 13.17 39.3894 14.1919 38.2513 15.5257C37.2444 16.701 36.345 18.6275 36.5774 20.4391C38.3525 20.5714 40.1751 19.5445 41.3144 18.202Z" fill="white"/>
<path d="M74.7157 44.6502H71.8787L70.3247 39.7729H64.923L63.4427 44.6502H60.6807L66.0336 28.0458H69.339L74.7157 44.6502ZM69.8562 37.7267L68.4508 33.3909C68.3022 32.948 68.0223 31.9049 67.6126 30.2629H67.5626C67.3977 30.9691 67.1341 32.0122 66.7731 33.3909L65.3915 37.7267H69.8562ZM88.4546 38.5165C88.4546 40.5527 87.9012 42.1622 86.7932 43.3438C85.8013 44.3956 84.5683 44.9209 83.098 44.9209C81.5102 44.9209 80.3684 44.3558 79.6751 43.2229V49.505H77.0118V36.6125C77.0118 35.3336 76.978 34.0223 76.9131 32.6772H79.2554L79.404 34.5751H79.454C80.3422 33.1452 81.6901 32.4303 83.499 32.4303C84.9131 32.4303 86.0936 32.9879 87.038 34.1046C87.9812 35.2238 88.4546 36.6936 88.4546 38.5165ZM85.7413 38.6138C85.7413 37.4485 85.479 36.4878 84.9518 35.7304C84.3759 34.9431 83.6027 34.5489 82.6333 34.5489C81.9762 34.5489 81.379 34.7685 80.8456 35.2014C80.311 35.6381 79.9612 36.2082 79.7975 36.9144C79.7245 37.1785 79.683 37.4504 79.6738 37.7243V39.7217C79.6738 40.5914 79.9412 41.3263 80.4759 41.9277C81.0105 42.5266 81.7051 42.8274 82.5596 42.8274C83.5627 42.8274 84.3434 42.4392 84.9018 41.6694C85.4615 40.8971 85.7413 39.879 85.7413 38.6138ZM102.242 38.5165C102.242 40.5527 101.689 42.1622 100.581 43.3438C99.5877 44.3956 98.356 44.9209 96.8844 44.9209C95.2966 44.9209 94.1548 44.3558 93.4615 43.2229V49.505H90.7982V36.6125C90.7982 35.3336 90.7644 34.0223 90.6995 32.6772H93.0418L93.1904 34.5751H93.2404C94.1274 33.1452 95.4753 32.4303 97.2854 32.4303C98.6983 32.4303 99.8788 32.9879 100.826 34.1046C101.768 35.2238 102.242 36.6936 102.242 38.5165ZM99.5278 38.6138C99.5278 37.4485 99.2642 36.4878 98.737 35.7304C98.1611 34.9431 97.3903 34.5489 96.4209 34.5489C95.7638 34.5489 95.1667 34.7685 94.6308 35.2014C94.0961 35.6381 93.7476 36.2082 93.5839 36.9144C93.5027 37.2438 93.459 37.5122 93.459 37.7243V39.7217C93.459 40.5914 93.7276 41.3263 94.2598 41.9277C94.7944 42.5253 95.489 42.8274 96.346 42.8274C97.3504 42.8274 98.1311 42.4392 98.6883 41.6694C99.2479 40.8971 99.5278 39.879 99.5278 38.6138ZM117.658 39.9925C117.658 41.4061 117.163 42.5554 116.18 43.4425C115.098 44.4107 113.588 44.896 111.651 44.896C109.863 44.896 108.428 44.5516 107.347 43.8616L107.963 41.6445C109.131 42.3358 110.413 42.68 111.81 42.68C112.814 42.68 113.595 42.4529 114.152 42.0025C114.711 41.5509 114.993 40.9471 114.993 40.1935C114.993 39.5185 114.76 38.9533 114.301 38.4929C113.84 38.0337 113.078 37.6056 112.007 37.2127C109.097 36.1285 107.64 34.5425 107.64 32.4564C107.64 31.0939 108.155 29.9785 109.182 29.1063C110.209 28.2354 111.57 27.8 113.264 27.8C114.777 27.8 116.037 28.0633 117.038 28.5885L116.37 30.757C115.428 30.248 114.365 29.9935 113.176 29.9935C112.236 29.9935 111.499 30.2243 110.972 30.6834C110.528 31.0939 110.304 31.5943 110.304 32.1882C110.304 32.8433 110.56 33.3872 111.069 33.8139C111.512 34.2069 112.319 34.635 113.485 35.0941C114.917 35.6706 115.969 36.3418 116.642 37.1129C117.32 37.884 117.658 38.846 117.658 39.9925ZM126.486 34.6736H123.55V40.4866C123.55 41.9651 124.067 42.7025 125.104 42.7025C125.58 42.7025 125.975 42.6626 126.287 42.579L126.361 44.599C125.836 44.7949 125.146 44.8934 124.29 44.8934C123.238 44.8934 122.416 44.5728 121.823 43.9315C121.232 43.2902 120.934 42.216 120.934 40.7038V34.6686H119.186V32.6722H120.934V30.48L123.55 29.6915V32.6722H126.486V34.6736ZM139.705 38.5652C139.705 40.4056 139.178 41.9164 138.126 43.098C137.026 44.3145 135.562 44.9209 133.736 44.9209C131.975 44.9209 130.575 44.3382 129.53 43.1741C128.486 42.0075 127.964 40.5378 127.964 38.7649C127.964 36.9095 128.503 35.3897 129.579 34.2082C130.657 33.0253 132.109 32.434 133.934 32.434C135.693 32.434 137.106 33.018 138.175 34.1833C139.197 35.3137 139.705 36.7735 139.705 38.5652ZM136.944 38.6264C136.944 37.5296 136.707 36.5888 136.231 35.8015C135.673 34.8507 134.873 34.3755 133.838 34.3755C132.771 34.3755 131.953 34.8507 131.395 35.8015C130.918 36.5888 130.681 37.5459 130.681 38.6763C130.681 39.7742 130.918 40.7175 131.395 41.5023C131.971 42.453 132.775 42.9283 133.815 42.9283C134.833 42.9283 135.632 42.4431 136.209 41.4785C136.698 40.6726 136.944 39.7256 136.944 38.6264ZM148.366 35.0168C148.089 34.9668 147.808 34.9421 147.527 34.9431C146.59 34.9431 145.865 35.295 145.355 36.0037C144.913 36.6275 144.691 37.416 144.691 38.368V44.6502H142.028V36.4478C142.03 35.1909 142.004 33.9343 141.95 32.6786H144.27L144.367 34.9693H144.441C144.723 34.182 145.166 33.5469 145.773 33.0715C146.328 32.6561 147.004 32.4313 147.698 32.4303C147.944 32.4303 148.166 32.4478 148.364 32.479L148.366 35.0168ZM160.277 38.0972C160.284 38.5016 160.252 38.9057 160.18 39.3038H152.19C152.22 40.4866 152.607 41.3924 153.349 42.0163C154.023 42.5728 154.893 42.8522 155.963 42.8522C157.146 42.8522 158.225 42.6651 159.196 42.287L159.613 44.1324C158.479 44.6265 157.139 44.8722 155.594 44.8722C153.735 44.8722 152.276 44.3257 151.214 43.2353C150.155 42.1435 149.624 40.6763 149.624 38.8385C149.624 37.0343 150.118 35.5307 151.106 34.3317C152.14 33.0515 153.538 32.4116 155.297 32.4116C157.024 32.4116 158.332 33.0515 159.221 34.3317C159.924 35.3461 160.277 36.6037 160.277 38.0972ZM157.738 37.4073C157.757 36.6175 157.582 35.9376 157.221 35.3624C156.76 34.6212 156.05 34.2519 155.099 34.2519C154.229 34.2519 153.519 34.6125 152.98 35.3362C152.536 35.9114 152.272 36.6026 152.191 37.4049L157.738 37.4073Z" fill="white"/>
</svg>
