<svg width="191" height="59" viewBox="0 0 191 59" fill="none" xmlns="http://www.w3.org/2000/svg">
<path d="M185.5 0H5.5C2.46243 0 0 2.46243 0 5.5V53.5C0 56.5376 2.46243 59 5.5 59H185.5C188.538 59 191 56.5376 191 53.5V5.5C191 2.46243 188.538 0 185.5 0Z" fill="#0C6BE7"/>
<path d="M65.564 16.108C66.116 16.244 66.548 16.492 66.86 16.852C67.18 17.212 67.34 17.644 67.34 18.148C67.34 18.636 67.188 19.064 66.884 19.432C66.58 19.8 66.176 20.084 65.672 20.284C65.168 20.476 64.62 20.572 64.028 20.572C63.468 20.572 62.916 20.484 62.372 20.308C61.836 20.124 61.352 19.852 60.92 19.492L61.244 18.856C61.612 19.168 62.032 19.408 62.504 19.576C62.976 19.736 63.452 19.816 63.932 19.816C64.388 19.816 64.808 19.744 65.192 19.6C65.576 19.456 65.88 19.252 66.104 18.988C66.336 18.716 66.452 18.396 66.452 18.028C66.452 17.54 66.26 17.164 65.876 16.9C65.492 16.636 64.952 16.504 64.256 16.504H62.456V15.784H64.208C64.8 15.784 65.26 15.66 65.588 15.412C65.924 15.156 66.092 14.804 66.092 14.356C66.092 13.86 65.88 13.472 65.456 13.192C65.032 12.904 64.5 12.76 63.86 12.76C63.46 12.76 63.056 12.82 62.648 12.94C62.24 13.052 61.852 13.224 61.484 13.456L61.184 12.724C62.016 12.228 62.916 11.98 63.884 11.98C64.452 11.98 64.972 12.072 65.444 12.256C65.916 12.44 66.288 12.704 66.56 13.048C66.84 13.392 66.98 13.796 66.98 14.26C66.98 14.708 66.856 15.096 66.608 15.424C66.36 15.744 66.012 15.972 65.564 16.108ZM71.5129 14.14C72.3369 14.14 72.9689 14.348 73.4089 14.764C73.8489 15.172 74.0689 15.78 74.0689 16.588V20.5H73.2529V19.516C73.0609 19.844 72.7769 20.1 72.4009 20.284C72.0329 20.468 71.5929 20.56 71.0809 20.56C70.3769 20.56 69.8169 20.392 69.4009 20.056C68.9849 19.72 68.7769 19.276 68.7769 18.724C68.7769 18.188 68.9689 17.756 69.3529 17.428C69.7449 17.1 70.3649 16.936 71.2129 16.936H73.2169V16.552C73.2169 16.008 73.0649 15.596 72.7609 15.316C72.4569 15.028 72.0129 14.884 71.4289 14.884C71.0289 14.884 70.6449 14.952 70.2769 15.088C69.9089 15.216 69.5929 15.396 69.3289 15.628L68.9449 14.992C69.2649 14.72 69.6489 14.512 70.0969 14.368C70.5449 14.216 71.0169 14.14 71.5129 14.14ZM71.2129 19.888C71.6929 19.888 72.1049 19.78 72.4489 19.564C72.7929 19.34 73.0489 19.02 73.2169 18.604V17.572H71.2369C70.1569 17.572 69.6169 17.948 69.6169 18.7C69.6169 19.068 69.7569 19.36 70.0369 19.576C70.3169 19.784 70.7089 19.888 71.2129 19.888ZM80.357 17.236C81.213 17.436 81.641 17.952 81.641 18.784C81.641 19.336 81.437 19.76 81.029 20.056C80.621 20.352 80.013 20.5 79.205 20.5H76.337V14.188H79.121C79.841 14.188 80.405 14.328 80.813 14.608C81.2211 14.888 81.425 15.288 81.425 15.808C81.425 16.152 81.329 16.448 81.137 16.696C80.953 16.936 80.693 17.116 80.357 17.236ZM77.165 16.996H79.061C79.549 16.996 79.921 16.904 80.177 16.72C80.441 16.536 80.573 16.268 80.573 15.916C80.573 15.564 80.441 15.3 80.177 15.124C79.921 14.948 79.549 14.86 79.061 14.86H77.165V16.996ZM79.169 19.828C79.713 19.828 80.121 19.74 80.393 19.564C80.665 19.388 80.801 19.112 80.801 18.736C80.801 18.36 80.677 18.084 80.429 17.908C80.181 17.724 79.789 17.632 79.253 17.632H77.165V19.828H79.169ZM85.8098 14.14C86.6338 14.14 87.2658 14.348 87.7058 14.764C88.1458 15.172 88.3658 15.78 88.3658 16.588V20.5H87.5498V19.516C87.3578 19.844 87.0738 20.1 86.6978 20.284C86.3298 20.468 85.8898 20.56 85.3778 20.56C84.6738 20.56 84.1138 20.392 83.6978 20.056C83.2818 19.72 83.0738 19.276 83.0738 18.724C83.0738 18.188 83.2658 17.756 83.6498 17.428C84.0418 17.1 84.6618 16.936 85.5098 16.936H87.5138V16.552C87.5138 16.008 87.3618 15.596 87.0578 15.316C86.7538 15.028 86.3098 14.884 85.7258 14.884C85.3258 14.884 84.9418 14.952 84.5738 15.088C84.2058 15.216 83.8898 15.396 83.6258 15.628L83.2418 14.992C83.5618 14.72 83.9458 14.512 84.3938 14.368C84.8418 14.216 85.3138 14.14 85.8098 14.14ZM85.5098 19.888C85.9898 19.888 86.4018 19.78 86.7458 19.564C87.0898 19.34 87.3458 19.02 87.5138 18.604V17.572H85.5338C84.4538 17.572 83.9138 17.948 83.9138 18.7C83.9138 19.068 84.0538 19.36 84.3338 19.576C84.6138 19.784 85.0058 19.888 85.5098 19.888ZM90.6339 14.188H91.4859V16.984H95.4579V14.188H96.3099V20.5H95.4579V17.716H91.4859V20.5H90.6339V14.188ZM103.172 14.944H100.784V20.5H99.932V14.944H97.5435V14.188H103.172V14.944ZM106.575 14.14C107.399 14.14 108.031 14.348 108.471 14.764C108.911 15.172 109.131 15.78 109.131 16.588V20.5H108.315V19.516C108.123 19.844 107.839 20.1 107.463 20.284C107.095 20.468 106.655 20.56 106.143 20.56C105.439 20.56 104.879 20.392 104.463 20.056C104.047 19.72 103.839 19.276 103.839 18.724C103.839 18.188 104.031 17.756 104.415 17.428C104.807 17.1 105.427 16.936 106.275 16.936H108.279V16.552C108.279 16.008 108.127 15.596 107.823 15.316C107.519 15.028 107.075 14.884 106.491 14.884C106.091 14.884 105.707 14.952 105.339 15.088C104.971 15.216 104.655 15.396 104.391 15.628L104.007 14.992C104.327 14.72 104.711 14.512 105.159 14.368C105.607 14.216 106.079 14.14 106.575 14.14ZM106.275 19.888C106.755 19.888 107.167 19.78 107.511 19.564C107.855 19.34 108.111 19.02 108.279 18.604V17.572H106.299C105.219 17.572 104.679 17.948 104.679 18.7C104.679 19.068 104.819 19.36 105.099 19.576C105.379 19.784 105.771 19.888 106.275 19.888ZM116.932 17.692H115.564V20.5H114.712V17.692H113.344L111.412 20.5H110.392L112.66 17.248L110.572 14.188H111.496L113.344 16.96H114.712V14.188H115.564V16.96H116.932L118.792 14.188H119.716L117.628 17.26L119.896 20.5H118.876L116.932 17.692ZM121.314 14.188H122.166V19.204L126.378 14.188H127.134V20.5H126.282V15.484L122.082 20.5H121.314V14.188ZM134.015 14.944H131.627V20.5H130.775V14.944H128.387V14.188H134.015V14.944ZM135.247 14.188H136.099V19.204L140.311 14.188H141.067V20.5H140.215V15.484L136.015 20.5H135.247V14.188ZM150.67 17.236C151.526 17.436 151.954 17.952 151.954 18.784C151.954 19.336 151.75 19.76 151.342 20.056C150.934 20.352 150.326 20.5 149.518 20.5H146.65V14.188H149.434C150.154 14.188 150.718 14.328 151.126 14.608C151.534 14.888 151.738 15.288 151.738 15.808C151.738 16.152 151.642 16.448 151.45 16.696C151.266 16.936 151.006 17.116 150.67 17.236ZM147.478 16.996H149.374C149.862 16.996 150.234 16.904 150.49 16.72C150.754 16.536 150.886 16.268 150.886 15.916C150.886 15.564 150.754 15.3 150.49 15.124C150.234 14.948 149.862 14.86 149.374 14.86H147.478V16.996ZM149.482 19.828C150.026 19.828 150.434 19.74 150.706 19.564C150.978 19.388 151.114 19.112 151.114 18.736C151.114 18.36 150.99 18.084 150.742 17.908C150.494 17.724 150.102 17.632 149.566 17.632H147.478V19.828H149.482Z" fill="white"/>
<path d="M44.3119 29.0277C44.2757 25.0064 47.6086 23.05 47.761 22.9589C45.8735 20.2102 42.9478 19.8346 41.9197 19.8047C39.4624 19.5464 37.0789 21.2732 35.8272 21.2732C34.5505 21.2732 32.6229 19.8297 30.5455 19.8721C27.8722 19.9133 25.3712 21.4592 23.9996 23.8597C21.1688 28.7544 23.28 35.9474 25.9921 39.9039C27.3487 41.8428 28.934 44.005 31.009 43.9289C33.0389 43.8466 33.7972 42.6376 36.2469 42.6376C38.6742 42.6376 39.3862 43.9289 41.5024 43.8803C43.6811 43.8466 45.0527 41.9339 46.3619 39.9787C47.9297 37.7591 48.5593 35.5706 48.5843 35.4583C48.5343 35.4408 44.3544 33.8463 44.3119 29.0277ZM40.3144 17.202C41.4062 15.8383 42.1533 13.9829 41.9459 12.1002C40.3656 12.17 38.3894 13.1919 37.2513 14.5257C36.2444 15.701 35.345 17.6275 35.5774 19.4391C37.3525 19.5714 39.1751 18.5445 40.3144 17.202Z" fill="white"/>
<path d="M73.7157 43.6501H70.8787L69.3247 38.7729H63.923L62.4427 43.6501H59.6807L65.0336 27.0458H68.339L73.7157 43.6501ZM68.8562 36.7267L67.4508 32.3909C67.3022 31.948 67.0223 30.9049 66.6126 29.2629H66.5626C66.3977 29.9691 66.1341 31.0122 65.7731 32.3909L64.3915 36.7267H68.8562ZM87.4546 37.5165C87.4546 39.5527 86.9012 41.1622 85.7932 42.3438C84.8013 43.3956 83.5683 43.9209 82.098 43.9209C80.5102 43.9209 79.3684 43.3557 78.6751 42.2228V48.5049H76.0118V35.6125C76.0118 34.3336 75.978 33.0223 75.9131 31.6772H78.2554L78.404 33.575H78.454C79.3422 32.1451 80.6901 31.4302 82.499 31.4302C83.9131 31.4302 85.0936 31.9879 86.038 33.1046C86.9812 34.2238 87.4546 35.6936 87.4546 37.5165ZM84.7413 37.6138C84.7413 36.4484 84.479 35.4877 83.9518 34.7304C83.3759 33.9431 82.6027 33.5488 81.6333 33.5488C80.9762 33.5488 80.379 33.7684 79.8456 34.2013C79.311 34.638 78.9612 35.2082 78.7975 35.9144C78.7245 36.1785 78.683 36.4503 78.6738 36.7242V38.7217C78.6738 39.5914 78.9412 40.3263 79.4759 40.9277C80.0105 41.5266 80.7051 41.8273 81.5596 41.8273C82.5627 41.8273 83.3434 41.4392 83.9018 40.6694C84.4615 39.8971 84.7413 38.8789 84.7413 37.6138ZM101.242 37.5165C101.242 39.5527 100.689 41.1622 99.581 42.3438C98.5877 43.3956 97.356 43.9209 95.8844 43.9209C94.2966 43.9209 93.1548 43.3557 92.4615 42.2228V48.5049H89.7982V35.6125C89.7982 34.3336 89.7644 33.0223 89.6995 31.6772H92.0418L92.1904 33.575H92.2404C93.1274 32.1451 94.4753 31.4302 96.2854 31.4302C97.6983 31.4302 98.8788 31.9879 99.826 33.1046C100.768 34.2238 101.242 35.6936 101.242 37.5165ZM98.5278 37.6138C98.5278 36.4484 98.2642 35.4877 97.737 34.7304C97.1611 33.9431 96.3903 33.5488 95.4209 33.5488C94.7638 33.5488 94.1667 33.7684 93.6308 34.2013C93.0961 34.638 92.7476 35.2082 92.5839 35.9144C92.5027 36.2438 92.459 36.5121 92.459 36.7242V38.7217C92.459 39.5914 92.7276 40.3263 93.2598 40.9277C93.7944 41.5253 94.489 41.8273 95.346 41.8273C96.3504 41.8273 97.1311 41.4392 97.6883 40.6694C98.2479 39.8971 98.5278 38.8789 98.5278 37.6138ZM116.658 38.9925C116.658 40.4061 116.163 41.5553 115.18 42.4424C114.098 43.4106 112.588 43.8959 110.651 43.8959C108.863 43.8959 107.428 43.5516 106.347 42.8616L106.963 40.6444C108.131 41.3357 109.413 41.68 110.81 41.68C111.814 41.68 112.595 41.4529 113.152 41.0025C113.711 40.5509 113.993 39.947 113.993 39.1934C113.993 38.5184 113.76 37.9532 113.301 37.4928C112.84 37.0336 112.078 36.6056 111.007 36.2126C108.097 35.1284 106.64 33.5425 106.64 31.4564C106.64 30.0939 107.155 28.9785 108.182 28.1063C109.209 27.2354 110.57 26.8 112.264 26.8C113.777 26.8 115.037 27.0633 116.038 27.5885L115.37 29.757C114.428 29.248 113.365 28.9934 112.176 28.9934C111.236 28.9934 110.499 29.2243 109.972 29.6834C109.528 30.0939 109.304 30.5942 109.304 31.1881C109.304 31.8432 109.56 32.3872 110.069 32.8139C110.512 33.2069 111.319 33.6349 112.485 34.094C113.917 34.6705 114.969 35.3417 115.642 36.1128C116.32 36.8839 116.658 37.8459 116.658 38.9925ZM125.486 33.6736H122.55V39.4866C122.55 40.9651 123.067 41.7025 124.104 41.7025C124.58 41.7025 124.975 41.6626 125.287 41.579L125.361 43.599C124.836 43.7949 124.146 43.8934 123.29 43.8934C122.238 43.8934 121.416 43.5728 120.823 42.9315C120.232 42.2902 119.934 41.2159 119.934 39.7037V33.6686H118.186V31.6722H119.934V29.48L122.55 28.6915V31.6722H125.486V33.6736ZM138.705 37.5651C138.705 39.4055 138.178 40.9164 137.126 42.098C136.026 43.3145 134.562 43.9209 132.736 43.9209C130.975 43.9209 129.575 43.3382 128.53 42.1741C127.486 41.0075 126.964 39.5377 126.964 37.7648C126.964 35.9094 127.503 34.3897 128.579 33.2082C129.657 32.0253 131.109 31.4339 132.934 31.4339C134.693 31.4339 136.106 32.0179 137.175 33.1832C138.197 34.3136 138.705 35.7734 138.705 37.5651ZM135.944 37.6263C135.944 36.5295 135.707 35.5888 135.231 34.8015C134.673 33.8507 133.873 33.3754 132.838 33.3754C131.771 33.3754 130.953 33.8507 130.395 34.8015C129.918 35.5888 129.681 36.5458 129.681 37.6762C129.681 38.7741 129.918 39.7174 130.395 40.5022C130.971 41.4529 131.775 41.9283 132.815 41.9283C133.833 41.9283 134.632 41.443 135.209 40.4785C135.698 39.6725 135.944 38.7255 135.944 37.6263ZM147.366 34.0167C147.089 33.9667 146.808 33.9421 146.527 33.9431C145.59 33.9431 144.865 34.2949 144.355 35.0036C143.913 35.6274 143.691 36.416 143.691 37.368V43.6501H141.028V35.4478C141.03 34.1909 141.004 32.9342 140.95 31.6785H143.27L143.367 33.9693H143.441C143.723 33.182 144.166 32.5469 144.773 32.0715C145.328 31.6561 146.004 31.4312 146.698 31.4302C146.944 31.4302 147.166 31.4477 147.364 31.4789L147.366 34.0167ZM159.277 37.0972C159.284 37.5016 159.252 37.9057 159.18 38.3038H151.19C151.22 39.4866 151.607 40.3924 152.349 41.0163C153.023 41.5727 153.893 41.8522 154.963 41.8522C156.146 41.8522 157.225 41.6651 158.196 41.287L158.613 43.1323C157.479 43.6264 156.139 43.8722 154.594 43.8722C152.735 43.8722 151.276 43.3257 150.214 42.2353C149.155 41.1435 148.624 39.6762 148.624 37.8384C148.624 36.0342 149.118 34.5307 150.106 33.3317C151.14 32.0515 152.538 31.4115 154.297 31.4115C156.024 31.4115 157.332 32.0515 158.221 33.3317C158.924 34.3461 159.277 35.6037 159.277 37.0972ZM156.738 36.4073C156.757 35.6175 156.582 34.9375 156.221 34.3623C155.76 33.6211 155.05 33.2518 154.099 33.2518C153.229 33.2518 152.519 33.6124 151.98 34.3361C151.536 34.9113 151.272 35.6025 151.191 36.4048L156.738 36.4073Z" fill="white"/>
</svg>
