<svg width="137" height="70" viewBox="0 0 137 70" fill="none" xmlns="http://www.w3.org/2000/svg">
<path d="M38.0013 70V55.49H33.3925V0H8.95683L6.60893 46.5201C6.43501 50.3015 6.00021 53.1156 3.91318 55.49H0V70H6.52197V61.5578H31.3924V70H38.0013ZM15.2179 6.24372H26.5227V55.49H10.4351C12.3483 53.4673 12.957 50.8291 13.2179 46.4322L15.2179 6.24372Z" fill="#BEDAFF"/>
<path d="M43.937 0V61.5578H50.7198V37.2864H56.72C66.3725 37.2864 70.8944 32.1859 70.8944 22.4246V15.0377C70.8944 5.71608 66.8073 0 57.2418 0H43.937ZM50.7198 31.1307V6.24372H57.2418C62.1985 6.24372 64.1986 9.05779 64.1986 14.6859V22.8643C64.1986 28.7563 61.7637 31.1307 56.72 31.1307H50.7198Z" fill="#BEDAFF"/>
<path d="M76.2071 0V61.5578H82.99V37.2864H88.9902C98.6427 37.2864 103.165 32.1859 103.165 22.4246V15.0377C103.165 5.71608 99.0775 0 89.5119 0H76.2071ZM82.99 31.1307V6.24372H89.5119C94.4686 6.24372 96.4687 9.05779 96.4687 14.6859V22.8643C96.4687 28.7563 94.0338 31.1307 88.9902 31.1307H82.99Z" fill="#BEDAFF"/>
<path d="M130.217 6.24372V61.5578H137V0H108.477V61.5578H115.26V6.24372H130.217Z" fill="#BEDAFF"/>
</svg>
