<svg width="193" height="61" viewBox="0 0 193 61" fill="none" xmlns="http://www.w3.org/2000/svg">
<path d="M186.544 1H6.5C3.46243 1 1 3.46243 1 6.5V54.5C1 57.5376 3.46243 60 6.5 60H186.544C189.582 60 192.044 57.5376 192.044 54.5V6.5C192.044 3.46243 189.582 1 186.544 1Z" stroke="white"/>
<path d="M66.5639 17.108C67.1159 17.244 67.5479 17.492 67.8599 17.852C68.1799 18.212 68.3399 18.644 68.3399 19.148C68.3399 19.636 68.1879 20.064 67.8839 20.432C67.5799 20.8 67.1759 21.084 66.6719 21.284C66.1679 21.476 65.6199 21.572 65.0279 21.572C64.4679 21.572 63.9159 21.484 63.3719 21.308C62.8359 21.124 62.3519 20.852 61.9199 20.492L62.2439 19.856C62.6119 20.168 63.0319 20.408 63.5039 20.576C63.9759 20.736 64.4519 20.816 64.9319 20.816C65.3879 20.816 65.8079 20.744 66.1919 20.6C66.5759 20.456 66.8799 20.252 67.1039 19.988C67.3359 19.716 67.4519 19.396 67.4519 19.028C67.4519 18.54 67.2599 18.164 66.8759 17.9C66.4919 17.636 65.9519 17.504 65.2559 17.504H63.4559V16.784H65.2079C65.7999 16.784 66.2599 16.66 66.5879 16.412C66.9239 16.156 67.0919 15.804 67.0919 15.356C67.0919 14.86 66.8799 14.472 66.4559 14.192C66.0319 13.904 65.4999 13.76 64.8599 13.76C64.4599 13.76 64.0559 13.82 63.6479 13.94C63.2399 14.052 62.8519 14.224 62.4839 14.456L62.1839 13.724C63.0159 13.228 63.9159 12.98 64.8839 12.98C65.4519 12.98 65.9719 13.072 66.4439 13.256C66.9159 13.44 67.2879 13.704 67.5599 14.048C67.8399 14.392 67.9799 14.796 67.9799 15.26C67.9799 15.708 67.8559 16.096 67.6079 16.424C67.3599 16.744 67.0119 16.972 66.5639 17.108ZM72.5128 15.14C73.3368 15.14 73.9688 15.348 74.4088 15.764C74.8488 16.172 75.0688 16.78 75.0688 17.588V21.5H74.2528V20.516C74.0608 20.844 73.7768 21.1 73.4008 21.284C73.0328 21.468 72.5928 21.56 72.0808 21.56C71.3768 21.56 70.8168 21.392 70.4008 21.056C69.9848 20.72 69.7768 20.276 69.7768 19.724C69.7768 19.188 69.9688 18.756 70.3528 18.428C70.7448 18.1 71.3648 17.936 72.2128 17.936H74.2168V17.552C74.2168 17.008 74.0648 16.596 73.7608 16.316C73.4568 16.028 73.0128 15.884 72.4288 15.884C72.0288 15.884 71.6448 15.952 71.2768 16.088C70.9088 16.216 70.5928 16.396 70.3288 16.628L69.9448 15.992C70.2648 15.72 70.6488 15.512 71.0968 15.368C71.5448 15.216 72.0168 15.14 72.5128 15.14ZM72.2128 20.888C72.6928 20.888 73.1048 20.78 73.4488 20.564C73.7928 20.34 74.0488 20.02 74.2168 19.604V18.572H72.2368C71.1568 18.572 70.6168 18.948 70.6168 19.7C70.6168 20.068 70.7568 20.36 71.0368 20.576C71.3168 20.784 71.7088 20.888 72.2128 20.888ZM81.3569 18.236C82.2129 18.436 82.6409 18.952 82.6409 19.784C82.6409 20.336 82.4369 20.76 82.0289 21.056C81.6209 21.352 81.0129 21.5 80.2049 21.5H77.3369V15.188H80.1209C80.8409 15.188 81.4049 15.328 81.8129 15.608C82.2209 15.888 82.4249 16.288 82.4249 16.808C82.4249 17.152 82.3289 17.448 82.1369 17.696C81.9529 17.936 81.6929 18.116 81.3569 18.236ZM78.1649 17.996H80.0609C80.5489 17.996 80.9209 17.904 81.1769 17.72C81.4409 17.536 81.5729 17.268 81.5729 16.916C81.5729 16.564 81.4409 16.3 81.1769 16.124C80.9209 15.948 80.5489 15.86 80.0609 15.86H78.1649V17.996ZM80.1689 20.828C80.7129 20.828 81.1209 20.74 81.3929 20.564C81.6649 20.388 81.8009 20.112 81.8009 19.736C81.8009 19.36 81.6769 19.084 81.4289 18.908C81.1809 18.724 80.7889 18.632 80.2529 18.632H78.1649V20.828H80.1689ZM86.8097 15.14C87.6337 15.14 88.2657 15.348 88.7057 15.764C89.1457 16.172 89.3657 16.78 89.3657 17.588V21.5H88.5497V20.516C88.3577 20.844 88.0737 21.1 87.6977 21.284C87.3297 21.468 86.8897 21.56 86.3777 21.56C85.6737 21.56 85.1137 21.392 84.6977 21.056C84.2817 20.72 84.0737 20.276 84.0737 19.724C84.0737 19.188 84.2657 18.756 84.6497 18.428C85.0417 18.1 85.6617 17.936 86.5097 17.936H88.5137V17.552C88.5137 17.008 88.3617 16.596 88.0577 16.316C87.7537 16.028 87.3097 15.884 86.7257 15.884C86.3257 15.884 85.9417 15.952 85.5737 16.088C85.2057 16.216 84.8897 16.396 84.6257 16.628L84.2417 15.992C84.5617 15.72 84.9457 15.512 85.3937 15.368C85.8417 15.216 86.3137 15.14 86.8097 15.14ZM86.5097 20.888C86.9897 20.888 87.4017 20.78 87.7457 20.564C88.0897 20.34 88.3457 20.02 88.5137 19.604V18.572H86.5337C85.4537 18.572 84.9137 18.948 84.9137 19.7C84.9137 20.068 85.0537 20.36 85.3337 20.576C85.6137 20.784 86.0057 20.888 86.5097 20.888ZM91.6338 15.188H92.4858V17.984H96.4578V15.188H97.3098V21.5H96.4578V18.716H92.4858V21.5H91.6338V15.188ZM104.172 15.944H101.784V21.5H100.932V15.944H98.5434V15.188H104.172V15.944ZM107.575 15.14C108.399 15.14 109.031 15.348 109.471 15.764C109.911 16.172 110.131 16.78 110.131 17.588V21.5H109.315V20.516C109.123 20.844 108.839 21.1 108.463 21.284C108.095 21.468 107.655 21.56 107.143 21.56C106.439 21.56 105.879 21.392 105.463 21.056C105.047 20.72 104.839 20.276 104.839 19.724C104.839 19.188 105.031 18.756 105.415 18.428C105.807 18.1 106.427 17.936 107.275 17.936H109.279V17.552C109.279 17.008 109.127 16.596 108.823 16.316C108.519 16.028 108.075 15.884 107.491 15.884C107.091 15.884 106.707 15.952 106.339 16.088C105.971 16.216 105.655 16.396 105.391 16.628L105.007 15.992C105.327 15.72 105.711 15.512 106.159 15.368C106.607 15.216 107.079 15.14 107.575 15.14ZM107.275 20.888C107.755 20.888 108.167 20.78 108.511 20.564C108.855 20.34 109.111 20.02 109.279 19.604V18.572H107.299C106.219 18.572 105.679 18.948 105.679 19.7C105.679 20.068 105.819 20.36 106.099 20.576C106.379 20.784 106.771 20.888 107.275 20.888ZM117.932 18.692H116.564V21.5H115.712V18.692H114.344L112.412 21.5H111.392L113.66 18.248L111.572 15.188H112.496L114.344 17.96H115.712V15.188H116.564V17.96H117.932L119.792 15.188H120.716L118.628 18.26L120.896 21.5H119.876L117.932 18.692ZM122.314 15.188H123.166V20.204L127.378 15.188H128.134V21.5H127.282V16.484L123.082 21.5H122.314V15.188ZM135.015 15.944H132.627V21.5H131.775V15.944H129.387V15.188H135.015V15.944ZM136.247 15.188H137.099V20.204L141.311 15.188H142.067V21.5H141.215V16.484L137.015 21.5H136.247V15.188ZM151.67 18.236C152.526 18.436 152.954 18.952 152.954 19.784C152.954 20.336 152.75 20.76 152.342 21.056C151.934 21.352 151.326 21.5 150.518 21.5H147.65V15.188H150.434C151.154 15.188 151.718 15.328 152.126 15.608C152.534 15.888 152.738 16.288 152.738 16.808C152.738 17.152 152.642 17.448 152.45 17.696C152.266 17.936 152.006 18.116 151.67 18.236ZM148.478 17.996H150.374C150.862 17.996 151.234 17.904 151.49 17.72C151.754 17.536 151.886 17.268 151.886 16.916C151.886 16.564 151.754 16.3 151.49 16.124C151.234 15.948 150.862 15.86 150.374 15.86H148.478V17.996ZM150.482 20.828C151.026 20.828 151.434 20.74 151.706 20.564C151.978 20.388 152.114 20.112 152.114 19.736C152.114 19.36 151.99 19.084 151.742 18.908C151.494 18.724 151.102 18.632 150.566 18.632H148.478V20.828H150.482Z" fill="white"/>
<path fill-rule="evenodd" clip-rule="evenodd" d="M97.3046 33.353C94.1506 33.353 91.594 35.6529 91.594 38.8252C91.594 41.9686 94.1673 44.2974 97.3046 44.2974C100.459 44.2974 103.015 41.9815 103.015 38.8252C103.015 35.6529 100.459 33.353 97.3046 33.353ZM97.3046 42.129C95.5791 42.129 94.0938 40.7562 94.0938 38.8124C94.0938 36.8397 95.5824 35.4957 97.3046 35.4957C99.0302 35.4957 100.515 36.8397 100.515 38.8124C100.519 40.769 99.0302 42.129 97.3046 42.129ZM84.8453 33.353C81.6912 33.353 79.1346 35.6529 79.1346 38.8252C79.1346 41.9686 81.7079 44.2974 84.8453 44.2974C87.9993 44.2974 90.556 41.9815 90.556 38.8252C90.556 35.6529 87.996 33.353 84.8453 33.353ZM84.8453 42.129C83.1197 42.129 81.6345 40.7562 81.6345 38.8124C81.6345 36.8397 83.1231 35.4957 84.8453 35.4957C86.5708 35.4957 88.0561 36.8397 88.0561 38.8124C88.0561 40.769 86.5708 42.129 84.8453 42.129ZM70.0196 35.0242V37.3401H75.8037C75.6268 38.6392 75.1796 39.5982 74.4953 40.2558C73.6476 41.0705 72.3392 41.9558 70.033 41.9558C66.4784 41.9558 63.6982 39.1973 63.6982 35.7812C63.6982 32.3651 66.4784 29.6065 70.033 29.6065C71.9521 29.6065 73.3505 30.3347 74.3885 31.2649L76.0974 29.6226C74.6555 28.2946 72.7364 27.2778 70.0463 27.2778C65.17 27.2778 61.0781 31.0949 61.0781 35.7683C61.0781 40.4547 65.1667 44.2589 70.0463 44.2589C72.6797 44.2589 74.6556 43.4313 76.2176 41.8724C77.8096 40.3424 78.3136 38.1837 78.3136 36.4419C78.3136 35.8999 78.2702 35.4123 78.1801 34.9985H70.0163C70.0196 34.9953 70.0196 35.0242 70.0196 35.0242ZM130.661 36.8269C130.183 35.5983 128.742 33.3402 125.784 33.3402C122.854 33.3402 120.418 35.5566 120.418 38.8124C120.418 41.8852 122.827 44.2845 126.068 44.2845C128.672 44.2845 130.187 42.7545 130.811 41.8564L128.878 40.6118C128.238 41.526 127.347 42.1258 126.082 42.1258C124.803 42.1258 123.909 41.5677 123.315 40.4675L130.928 37.4363C130.928 37.4395 130.661 36.8269 130.661 36.8269ZM122.897 38.6552C122.837 36.5414 124.606 35.4668 125.871 35.4668C126.869 35.4668 127.7 35.9384 127.984 36.6248L122.897 38.6552ZM116.713 43.9573H119.213V27.8809H116.713V43.9573ZM112.608 34.5687H112.517C111.953 33.924 110.882 33.3402 109.514 33.3402C106.673 33.3402 104.057 35.7427 104.057 38.8284C104.057 41.9013 106.66 44.2749 109.514 44.2749C110.865 44.2749 111.953 43.6879 112.517 43.0304H112.608V43.8162C112.608 45.9044 111.446 47.0302 109.574 47.0302C108.042 47.0302 107.091 45.9717 106.703 45.0864L104.531 45.9589C105.155 47.4023 106.82 49.1889 109.57 49.1889C112.501 49.1889 114.984 47.5306 114.984 43.4858V33.6674H112.621V34.5687C112.624 34.5687 112.608 34.5687 112.608 34.5687ZM109.737 42.129C108.012 42.129 106.57 40.7433 106.57 38.8284C106.57 36.8974 108.012 35.4989 109.737 35.4989C111.446 35.4989 112.771 36.9135 112.771 38.8284C112.788 40.7433 111.449 42.129 109.737 42.129ZM142.366 27.8809H136.388V43.9573H138.888V37.8693H142.369C145.136 37.8693 147.856 35.9416 147.856 32.8815C147.856 29.8215 145.146 27.8809 142.366 27.8809ZM142.439 35.624H138.885V30.1069H142.439C144.312 30.1069 145.37 31.5921 145.37 32.8655C145.37 34.1261 144.298 35.624 142.439 35.624ZM157.876 33.3242C156.06 33.3242 154.188 34.0972 153.413 35.7812L155.629 36.6665C156.107 35.7812 156.981 35.4797 157.906 35.4797C159.201 35.4797 160.509 36.2238 160.539 37.5518V37.7218C160.092 37.478 159.111 37.1059 157.936 37.1059C155.543 37.1059 153.116 38.3633 153.116 40.7209C153.116 42.8796 155.079 44.2653 157.265 44.2653C158.944 44.2653 159.868 43.5372 160.446 42.6936H160.536V43.9381H162.946V37.7795C162.946 34.9119 160.729 33.3242 157.876 33.3242ZM157.562 42.129C156.744 42.129 155.599 41.7441 155.599 40.7562C155.599 39.5116 157.028 39.0401 158.246 39.0401C159.348 39.0401 159.868 39.2678 160.522 39.5822C160.342 41.0256 159.074 42.1162 157.562 42.129ZM171.737 33.6674L168.866 40.6407H168.776L165.803 33.6674H163.112L167.575 43.4153L165.032 48.8329H167.635L174.5 33.6674H171.737ZM149.235 43.9573H151.734V27.8809H149.235V43.9573Z" fill="white"/>
<path d="M22.9207 13.0438C21.5905 12.3085 20.0287 12.3255 18.707 13.0544L34.1974 27.3442L39.4012 22.1404L22.9207 13.0438Z" fill="white"/>
<path d="M17.1584 14.5161C16.7802 15.1345 16.5635 15.842 16.5635 16.5921V42.4009C16.5635 43.1276 16.7611 43.8203 17.1181 44.4259L32.6956 28.8484L17.1584 14.5161Z" fill="white"/>
<path d="M46.3013 25.948L41.3376 23.209L35.7598 28.7847L42.5955 35.0892L46.3034 33.0429C47.6378 32.3035 48.4368 30.9776 48.4368 29.4944C48.4347 28.0112 47.6378 26.6853 46.3013 25.948Z" fill="white"/>
<path d="M34.2577 30.2891L18.6377 45.909C19.3155 46.2958 20.0592 46.4998 20.8072 46.4998C21.5297 46.4998 22.2564 46.317 22.9215 45.9494L40.6366 36.1729L34.2577 30.2891Z" fill="white"/>
</svg>
