<svg width="192" height="59" viewBox="0 0 192 59" fill="none" xmlns="http://www.w3.org/2000/svg">
<path d="M185.544 0H5.5C2.46243 0 0 2.46243 0 5.5V53.5C0 56.5376 2.46243 59 5.5 59H185.544C188.582 59 191.044 56.5376 191.044 53.5V5.5C191.044 2.46243 188.582 0 185.544 0Z" fill="#0C6BE7"/>
<path d="M65.564 16.108C66.116 16.244 66.548 16.492 66.86 16.852C67.18 17.212 67.34 17.644 67.34 18.148C67.34 18.636 67.188 19.064 66.884 19.432C66.58 19.8 66.176 20.084 65.672 20.284C65.168 20.476 64.62 20.572 64.028 20.572C63.468 20.572 62.916 20.484 62.372 20.308C61.836 20.124 61.352 19.852 60.92 19.492L61.244 18.856C61.612 19.168 62.032 19.408 62.504 19.576C62.976 19.736 63.452 19.816 63.932 19.816C64.388 19.816 64.808 19.744 65.192 19.6C65.576 19.456 65.88 19.252 66.104 18.988C66.336 18.716 66.452 18.396 66.452 18.028C66.452 17.54 66.26 17.164 65.876 16.9C65.492 16.636 64.952 16.504 64.256 16.504H62.456V15.784H64.208C64.8 15.784 65.26 15.66 65.588 15.412C65.924 15.156 66.092 14.804 66.092 14.356C66.092 13.86 65.88 13.472 65.456 13.192C65.032 12.904 64.5 12.76 63.86 12.76C63.46 12.76 63.056 12.82 62.648 12.94C62.24 13.052 61.852 13.224 61.484 13.456L61.184 12.724C62.016 12.228 62.916 11.98 63.884 11.98C64.452 11.98 64.972 12.072 65.444 12.256C65.916 12.44 66.288 12.704 66.56 13.048C66.84 13.392 66.98 13.796 66.98 14.26C66.98 14.708 66.856 15.096 66.608 15.424C66.36 15.744 66.012 15.972 65.564 16.108ZM71.5129 14.14C72.3369 14.14 72.9689 14.348 73.4089 14.764C73.8489 15.172 74.0689 15.78 74.0689 16.588V20.5H73.2529V19.516C73.0609 19.844 72.7769 20.1 72.4009 20.284C72.0329 20.468 71.5929 20.56 71.0809 20.56C70.3769 20.56 69.8169 20.392 69.4009 20.056C68.9849 19.72 68.7769 19.276 68.7769 18.724C68.7769 18.188 68.9689 17.756 69.3529 17.428C69.7449 17.1 70.3649 16.936 71.2129 16.936H73.2169V16.552C73.2169 16.008 73.0649 15.596 72.7609 15.316C72.4569 15.028 72.0129 14.884 71.4289 14.884C71.0289 14.884 70.6449 14.952 70.2769 15.088C69.9089 15.216 69.5929 15.396 69.3289 15.628L68.9449 14.992C69.2649 14.72 69.6489 14.512 70.0969 14.368C70.5449 14.216 71.0169 14.14 71.5129 14.14ZM71.2129 19.888C71.6929 19.888 72.1049 19.78 72.4489 19.564C72.7929 19.34 73.0489 19.02 73.2169 18.604V17.572H71.2369C70.1569 17.572 69.6169 17.948 69.6169 18.7C69.6169 19.068 69.7569 19.36 70.0369 19.576C70.3169 19.784 70.7089 19.888 71.2129 19.888ZM80.357 17.236C81.213 17.436 81.641 17.952 81.641 18.784C81.641 19.336 81.437 19.76 81.029 20.056C80.621 20.352 80.013 20.5 79.205 20.5H76.337V14.188H79.121C79.841 14.188 80.405 14.328 80.813 14.608C81.2211 14.888 81.425 15.288 81.425 15.808C81.425 16.152 81.329 16.448 81.137 16.696C80.953 16.936 80.693 17.116 80.357 17.236ZM77.165 16.996H79.061C79.549 16.996 79.921 16.904 80.177 16.72C80.441 16.536 80.573 16.268 80.573 15.916C80.573 15.564 80.441 15.3 80.177 15.124C79.921 14.948 79.549 14.86 79.061 14.86H77.165V16.996ZM79.169 19.828C79.713 19.828 80.121 19.74 80.393 19.564C80.665 19.388 80.801 19.112 80.801 18.736C80.801 18.36 80.677 18.084 80.429 17.908C80.181 17.724 79.789 17.632 79.253 17.632H77.165V19.828H79.169ZM85.8098 14.14C86.6338 14.14 87.2658 14.348 87.7058 14.764C88.1458 15.172 88.3658 15.78 88.3658 16.588V20.5H87.5498V19.516C87.3578 19.844 87.0738 20.1 86.6978 20.284C86.3298 20.468 85.8898 20.56 85.3778 20.56C84.6738 20.56 84.1138 20.392 83.6978 20.056C83.2818 19.72 83.0738 19.276 83.0738 18.724C83.0738 18.188 83.2658 17.756 83.6498 17.428C84.0418 17.1 84.6618 16.936 85.5098 16.936H87.5138V16.552C87.5138 16.008 87.3618 15.596 87.0578 15.316C86.7538 15.028 86.3098 14.884 85.7258 14.884C85.3258 14.884 84.9418 14.952 84.5738 15.088C84.2058 15.216 83.8898 15.396 83.6258 15.628L83.2418 14.992C83.5618 14.72 83.9458 14.512 84.3938 14.368C84.8418 14.216 85.3138 14.14 85.8098 14.14ZM85.5098 19.888C85.9898 19.888 86.4018 19.78 86.7458 19.564C87.0898 19.34 87.3458 19.02 87.5138 18.604V17.572H85.5338C84.4538 17.572 83.9138 17.948 83.9138 18.7C83.9138 19.068 84.0538 19.36 84.3338 19.576C84.6138 19.784 85.0058 19.888 85.5098 19.888ZM90.6339 14.188H91.4859V16.984H95.4579V14.188H96.3099V20.5H95.4579V17.716H91.4859V20.5H90.6339V14.188ZM103.172 14.944H100.784V20.5H99.932V14.944H97.5435V14.188H103.172V14.944ZM106.575 14.14C107.399 14.14 108.031 14.348 108.471 14.764C108.911 15.172 109.131 15.78 109.131 16.588V20.5H108.315V19.516C108.123 19.844 107.839 20.1 107.463 20.284C107.095 20.468 106.655 20.56 106.143 20.56C105.439 20.56 104.879 20.392 104.463 20.056C104.047 19.72 103.839 19.276 103.839 18.724C103.839 18.188 104.031 17.756 104.415 17.428C104.807 17.1 105.427 16.936 106.275 16.936H108.279V16.552C108.279 16.008 108.127 15.596 107.823 15.316C107.519 15.028 107.075 14.884 106.491 14.884C106.091 14.884 105.707 14.952 105.339 15.088C104.971 15.216 104.655 15.396 104.391 15.628L104.007 14.992C104.327 14.72 104.711 14.512 105.159 14.368C105.607 14.216 106.079 14.14 106.575 14.14ZM106.275 19.888C106.755 19.888 107.167 19.78 107.511 19.564C107.855 19.34 108.111 19.02 108.279 18.604V17.572H106.299C105.219 17.572 104.679 17.948 104.679 18.7C104.679 19.068 104.819 19.36 105.099 19.576C105.379 19.784 105.771 19.888 106.275 19.888ZM116.932 17.692H115.564V20.5H114.712V17.692H113.344L111.412 20.5H110.392L112.66 17.248L110.572 14.188H111.496L113.344 16.96H114.712V14.188H115.564V16.96H116.932L118.792 14.188H119.716L117.628 17.26L119.896 20.5H118.876L116.932 17.692ZM121.314 14.188H122.166V19.204L126.378 14.188H127.134V20.5H126.282V15.484L122.082 20.5H121.314V14.188ZM134.015 14.944H131.627V20.5H130.775V14.944H128.387V14.188H134.015V14.944ZM135.247 14.188H136.099V19.204L140.311 14.188H141.067V20.5H140.215V15.484L136.015 20.5H135.247V14.188ZM150.67 17.236C151.526 17.436 151.954 17.952 151.954 18.784C151.954 19.336 151.75 19.76 151.342 20.056C150.934 20.352 150.326 20.5 149.518 20.5H146.65V14.188H149.434C150.154 14.188 150.718 14.328 151.126 14.608C151.534 14.888 151.738 15.288 151.738 15.808C151.738 16.152 151.642 16.448 151.45 16.696C151.266 16.936 151.006 17.116 150.67 17.236ZM147.478 16.996H149.374C149.862 16.996 150.234 16.904 150.49 16.72C150.754 16.536 150.886 16.268 150.886 15.916C150.886 15.564 150.754 15.3 150.49 15.124C150.234 14.948 149.862 14.86 149.374 14.86H147.478V16.996ZM149.482 19.828C150.026 19.828 150.434 19.74 150.706 19.564C150.978 19.388 151.114 19.112 151.114 18.736C151.114 18.36 150.99 18.084 150.742 17.908C150.494 17.724 150.102 17.632 149.566 17.632H147.478V19.828H149.482Z" fill="white"/>
<path fill-rule="evenodd" clip-rule="evenodd" d="M96.3046 32.353C93.1506 32.353 90.594 34.6529 90.594 37.8252C90.594 40.9686 93.1673 43.2974 96.3046 43.2974C99.4587 43.2974 102.015 40.9815 102.015 37.8252C102.015 34.6529 99.4587 32.353 96.3046 32.353ZM96.3046 41.129C94.5791 41.129 93.0938 39.7562 93.0938 37.8124C93.0938 35.8397 94.5824 34.4957 96.3046 34.4957C98.0302 34.4957 99.515 35.8397 99.515 37.8124C99.519 39.769 98.0302 41.129 96.3046 41.129ZM83.8453 32.353C80.6912 32.353 78.1346 34.6529 78.1346 37.8252C78.1346 40.9686 80.7079 43.2974 83.8453 43.2974C86.9993 43.2974 89.556 40.9815 89.556 37.8252C89.556 34.6529 86.996 32.353 83.8453 32.353ZM83.8453 41.129C82.1197 41.129 80.6345 39.7562 80.6345 37.8124C80.6345 35.8397 82.1231 34.4957 83.8453 34.4957C85.5708 34.4957 87.0561 35.8397 87.0561 37.8124C87.0561 39.769 85.5708 41.129 83.8453 41.129ZM69.0196 34.0242V36.3401H74.8037C74.6268 37.6392 74.1796 38.5982 73.4953 39.2558C72.6476 40.0705 71.3392 40.9558 69.033 40.9558C65.4784 40.9558 62.6982 38.1973 62.6982 34.7812C62.6982 31.3651 65.4784 28.6065 69.033 28.6065C70.9521 28.6065 72.3505 29.3347 73.3885 30.2649L75.0974 28.6226C73.6555 27.2946 71.7364 26.2778 69.0463 26.2778C64.17 26.2778 60.0781 30.0949 60.0781 34.7683C60.0781 39.4547 64.1667 43.2589 69.0463 43.2589C71.6797 43.2589 73.6556 42.4313 75.2176 40.8724C76.8096 39.3424 77.3136 37.1837 77.3136 35.4419C77.3136 34.8999 77.2702 34.4123 77.1801 33.9985H69.0163C69.0196 33.9953 69.0196 34.0242 69.0196 34.0242ZM129.661 35.8269C129.183 34.5983 127.742 32.3402 124.784 32.3402C121.854 32.3402 119.418 34.5566 119.418 37.8124C119.418 40.8852 121.827 43.2845 125.068 43.2845C127.672 43.2845 129.187 41.7545 129.811 40.8564L127.878 39.6118C127.238 40.526 126.347 41.1258 125.082 41.1258C123.803 41.1258 122.909 40.5677 122.315 39.4675L129.928 36.4363C129.928 36.4395 129.661 35.8269 129.661 35.8269ZM121.897 37.6552C121.837 35.5414 123.606 34.4668 124.871 34.4668C125.869 34.4668 126.7 34.9384 126.984 35.6248L121.897 37.6552ZM115.713 42.9573H118.213V26.8809H115.713V42.9573ZM111.608 33.5687H111.517C110.953 32.924 109.882 32.3402 108.514 32.3402C105.673 32.3402 103.057 34.7427 103.057 37.8284C103.057 40.9013 105.66 43.2749 108.514 43.2749C109.865 43.2749 110.953 42.6879 111.517 42.0304H111.608V42.8162C111.608 44.9044 110.446 46.0302 108.574 46.0302C107.042 46.0302 106.091 44.9717 105.703 44.0864L103.531 44.9589C104.155 46.4023 105.82 48.1889 108.57 48.1889C111.501 48.1889 113.984 46.5306 113.984 42.4858V32.6674H111.621V33.5687C111.624 33.5687 111.608 33.5687 111.608 33.5687ZM108.737 41.129C107.012 41.129 105.57 39.7433 105.57 37.8284C105.57 35.8974 107.012 34.4989 108.737 34.4989C110.446 34.4989 111.771 35.9135 111.771 37.8284C111.788 39.7433 110.449 41.129 108.737 41.129ZM141.366 26.8809H135.388V42.9573H137.888V36.8693H141.369C144.136 36.8693 146.856 34.9416 146.856 31.8815C146.856 28.8215 144.146 26.8809 141.366 26.8809ZM141.439 34.624H137.885V29.1069H141.439C143.312 29.1069 144.37 30.5921 144.37 31.8655C144.37 33.1261 143.298 34.624 141.439 34.624ZM156.876 32.3242C155.06 32.3242 153.188 33.0972 152.413 34.7812L154.629 35.6665C155.107 34.7812 155.981 34.4797 156.906 34.4797C158.201 34.4797 159.509 35.2238 159.539 36.5518V36.7218C159.092 36.478 158.111 36.1059 156.936 36.1059C154.543 36.1059 152.116 37.3633 152.116 39.7209C152.116 41.8796 154.079 43.2653 156.265 43.2653C157.944 43.2653 158.868 42.5372 159.446 41.6936H159.536V42.9381H161.946V36.7795C161.946 33.9119 159.729 32.3242 156.876 32.3242ZM156.562 41.129C155.744 41.129 154.599 40.7441 154.599 39.7562C154.599 38.5116 156.028 38.0401 157.246 38.0401C158.348 38.0401 158.868 38.2678 159.522 38.5822C159.342 40.0256 158.074 41.1162 156.562 41.129ZM170.737 32.6674L167.866 39.6407H167.776L164.803 32.6674H162.112L166.575 42.4153L164.032 47.8329H166.635L173.5 32.6674H170.737ZM148.235 42.9573H150.734V26.8809H148.235V42.9573Z" fill="white"/>
<path d="M21.9207 12.0438C20.5905 11.3085 19.0287 11.3255 17.707 12.0544L33.1974 26.3442L38.4012 21.1404L21.9207 12.0438Z" fill="white"/>
<path d="M16.1584 13.5161C15.7802 14.1345 15.5635 14.842 15.5635 15.5921V41.4009C15.5635 42.1276 15.7611 42.8203 16.1181 43.4259L31.6956 27.8484L16.1584 13.5161Z" fill="white"/>
<path d="M45.3013 24.948L40.3376 22.209L34.7598 27.7847L41.5955 34.0892L45.3034 32.0429C46.6378 31.3035 47.4368 29.9776 47.4368 28.4944C47.4347 27.0112 46.6378 25.6853 45.3013 24.948Z" fill="white"/>
<path d="M33.2577 29.2891L17.6377 44.909C18.3155 45.2958 19.0592 45.4998 19.8072 45.4998C20.5297 45.4998 21.2564 45.317 21.9215 44.9494L39.6366 35.1729L33.2577 29.2891Z" fill="white"/>
</svg>
