<svg width="94" height="100" viewBox="0 0 94 100" fill="none" xmlns="http://www.w3.org/2000/svg">
<rect x="0.5" y="0.5" width="93" height="99" rx="14.8984" fill="white" stroke="white"/>
<mask id="mask0" mask-type="alpha" maskUnits="userSpaceOnUse" x="1" y="1" width="92" height="98">
<rect x="1" y="1" width="92" height="98" rx="14.3984" fill="white"/>
</mask>
<g mask="url(#mask0)">
<path fill-rule="evenodd" clip-rule="evenodd" d="M1 1H93V99H1V1Z" fill="#0C6BE7"/>
<path d="M31.698 66.0886V59.0613H29.4408V32.1875H17.4732L16.3233 54.7172C16.2381 56.5486 16.0252 57.9114 15.003 59.0613H13.0865V66.0886H16.2807V62H28.4612V66.0886H31.698ZM20.5396 35.2113H26.0762V59.0613H18.1972C19.1342 58.0818 19.4323 56.8041 19.5601 54.6746L20.5396 35.2113ZM34.6051 32.1875V62H37.9271V50.2453H40.8657C45.5931 50.2453 47.8078 47.7752 47.8078 43.0477V39.4702C47.8078 34.9558 45.8061 32.1875 41.1213 32.1875H34.6051ZM37.9271 47.2641V35.2113H41.1213C43.5488 35.2113 44.5284 36.5742 44.5284 39.2999V43.2607C44.5284 46.1142 43.3359 47.2641 40.8657 47.2641H37.9271ZM50.4097 32.1875V62H53.7317V50.2453H56.6704C61.3978 50.2453 63.6124 47.7752 63.6124 43.0477V39.4702C63.6124 34.9558 61.6107 32.1875 56.9259 32.1875H50.4097ZM53.7317 47.2641V35.2113H56.9259C59.3535 35.2113 60.333 36.5742 60.333 39.2999V43.2607C60.333 46.1142 59.1405 47.2641 56.6704 47.2641H53.7317ZM76.8617 35.2113V62H80.1837V32.1875H66.2144V62H69.5363V35.2113H76.8617Z" fill="white"/>
<rect x="-5" y="90" width="104" height="9" fill="url(#paint0_linear)"/>
</g>
<defs>
<linearGradient id="paint0_linear" x1="96.1429" y1="83.4429" x2="63.09" y2="116.13" gradientUnits="userSpaceOnUse">
<stop stop-color="#FFC700"/>
<stop offset="1" stop-color="#68AAFF"/>
</linearGradient>
</defs>
</svg>
