<svg width="164" height="164" viewBox="0 0 164 164" fill="none" xmlns="http://www.w3.org/2000/svg">
<path d="M0 17.3944V34.7884H17.3939H34.7879V17.3944V0.000488281H17.3939H0V17.3944ZM29.8182 17.3944V29.8187H17.3939H4.9697V17.3944V4.97018H17.3939H29.8182V17.3944Z" fill="white"/>
<path d="M9.93945 17.394V24.8485H17.394H24.8485V17.394V9.93945H17.394H9.93945V17.394Z" fill="white"/>
<path d="M49.6968 4.96994V9.93961H52.1816H54.6665V4.96994V0.000244141H52.1816H49.6968V4.96994Z" fill="white"/>
<path d="M59.6363 2.48484V4.96969H62.1213H64.6061V7.45455V9.93942H62.1213H59.6363V14.9091V19.8788H62.1213H64.6061V14.9091V9.93942H67.0909H69.5758V12.4243V14.9091H72.0606H74.5454V17.3939V19.8788H72.0606H69.5758V22.3637V24.8485H72.0606H74.5454V27.3333V29.8182H72.0606H69.5758V32.303V34.7879H72.0606H74.5454V32.303V29.8182H77.0303H79.515V34.7879V39.7576H77.0303H74.5454V44.7273V49.697H72.0606H69.5758V47.2122V44.7273H64.6061H59.6363V39.7576V34.7879H62.1213H64.6061V29.8182V24.8485H59.6363H54.6667V27.3333V29.8182H52.1818H49.697V24.8485V19.8788H52.1818H54.6667V17.3939V14.9091H47.2121H39.7576V17.3939V19.8788H42.2424H44.7273V22.3637V24.8485H42.2424H39.7576V29.8182V34.7879H42.2424H44.7273V37.2728V39.7576H37.2727H29.8182V42.2424V44.7273H32.303H34.7879V47.2122V49.697H29.8182H24.8485V44.7273V39.7576H12.4242H0V44.7273V49.697H7.45454H14.9091V52.1818V54.6667H12.4242H9.93941V57.1515V59.6363H7.45454H4.9697V62.1213V64.6061H2.48485H0V72.0606V79.515H2.48485H4.9697V82V84.485H2.48485H0V91.9392V99.3942H2.48485H4.9697V101.879V104.363H2.48485H0V114.303V124.243H2.48485H4.9697V114.303V104.363H7.45454H9.93941V101.879V99.3942H7.45454H4.9697V96.9092V94.4242H9.93941H14.9091V99.3942V104.363H17.3939H19.8788V99.3942V94.4242H22.3637H24.8485V91.9392V89.4542H27.3333H29.8182V91.9392V94.4242H34.7879H39.7576V99.3942V104.363H37.2727H34.7879V101.879V99.3942H29.8182H24.8485V104.363V109.333H27.3333H29.8182V111.818V114.303H32.303H34.7879V116.788V119.273H29.8182H24.8485V116.788V114.303H22.3637H19.8788V116.788V119.273H22.3637H24.8485V121.758V124.243H29.8182H34.7879V121.758V119.273H42.2424H49.697V109.333V99.3942H52.1818H54.6667V96.9092V94.4242H47.2121H39.7576V91.9392V89.4542H34.7879H29.8182V86.97V84.485H32.303H34.7879V82V79.515H32.303H29.8182V77.0303V74.5455H34.7879H39.7576V77.0303V79.515H42.2424H44.7273V84.485V89.4542H47.2121H49.697V84.485V79.515H52.1818H54.6667V82V84.485H57.1515H59.6363V86.97V89.4542H62.1213H64.6061V91.9392V94.4242H62.1213H59.6363V99.3942V104.363H62.1213H64.6061V101.879V99.3942H67.0909H69.5758V101.879V104.363H74.5454H79.515V101.879V99.3942H82H84.485V101.879V104.363H86.97H89.4542V101.879V99.3942H91.9392H94.4242V94.4242V89.4542H99.3942H104.363V94.4242V99.3942H101.879H99.3942V101.879V104.363H96.9092H94.4242V106.848V109.333H96.9092H99.3942V111.818V114.303H101.879H104.363V116.788V119.273H106.848H109.333V121.758V124.243H114.303H119.273V126.727V129.212H116.788H114.303V131.697V134.182H111.818H109.333V131.697V129.212H106.848H104.363V126.727V124.243H96.9092H89.4542V129.212V134.182H86.97H84.485V121.758V109.333H79.515H74.5454V111.818V114.303H72.0606H69.5758V116.788V119.273H72.0606H74.5454V121.758V124.243H67.0909H59.6363V119.273V114.303H62.1213H64.6061V111.818V109.333H59.6363H54.6667V116.788V124.243H52.1818H49.697V126.727V129.212H47.2121H44.7273V126.727V124.243H42.2424H39.7576V129.212V134.182H47.2121H54.6667V129.212V124.243H57.1515H59.6363V126.727V129.212H62.1213H64.6061V131.697V134.182H62.1213H59.6363V139.152V144.121H62.1213H64.6061V141.637V139.152H67.0909H69.5758V141.637V144.121H72.0606H74.5454V146.606V149.091H79.515H84.485V151.576V154.061H82H79.515V156.546V159.03H77.0303H74.5454V156.546V154.061H72.0606H69.5758V156.546V159.03H72.0606H74.5454V161.515V164H82H89.4542V159.03V154.061H91.9392H94.4242V151.576V149.091H96.9092H99.3942V144.121V139.152H104.363H109.333V141.637V144.121H106.848H104.363V146.606V149.091H109.333H114.303V151.576V154.061H106.848H99.3942V159.03V164H101.879H104.363V161.515V159.03H106.848H109.333V161.515V164H124.243H139.152V159.03V154.061H136.667H134.182V151.576V149.091H131.697H129.212V146.606V144.121H134.182H139.152V146.606V149.091H141.637H144.121V146.606V144.121H146.606H149.091V149.091V154.061H146.606H144.121V159.03V164H146.606H149.091V161.515V159.03H151.576H154.061V161.515V164H156.546H159.03V161.515V159.03H156.546H154.061V151.576V144.121H151.576H149.091V141.637V139.152H154.061H159.03V144.121V149.091H161.515H164V141.637V134.182H161.515H159.03V131.697V129.212H161.515H164V124.243V119.273H161.515H159.03V124.243V129.212H156.546H154.061V126.727V124.243H151.576H149.091V126.727V129.212H146.606H144.121V124.243V119.273H149.091H154.061V116.788V114.303H156.546H159.03V111.818V109.333H161.515H164V106.848V104.363H161.515H159.03V101.879V99.3942H156.546H154.061V96.9092V94.4242H156.546H159.03V91.9392V89.4542H161.515H164V86.97V84.485H161.515H159.03V82V79.515H156.546H154.061V77.0303V74.5455H156.546H159.03V72.0606V69.5758H161.515H164V67.0909V64.6061H159.03H154.061V69.5758V74.5455H151.576H149.091V77.0303V79.515H151.576H154.061V86.97V94.4242H151.576H149.091V89.4542V84.485H146.606H144.121V82V79.515H141.637H139.152V77.0303V74.5455H136.667H134.182V69.5758V64.6061H131.697H129.212V62.1213V59.6363H126.727H124.243V57.1515V54.6667H119.273H114.303V52.1818V49.697H124.243H134.182V54.6667V59.6363H136.667H139.152V62.1213V64.6061H144.121H149.091V62.1213V59.6363H151.576H154.061V57.1515V54.6667H156.546H159.03V52.1818V49.697H161.515H164V47.2122V44.7273H161.515H159.03V42.2424V39.7576H156.546H154.061V42.2424V44.7273H151.576H149.091V42.2424V39.7576H146.606H144.121V42.2424V44.7273H146.606H149.091V47.2122V49.697H146.606H144.121V52.1818V54.6667H146.606H149.091V57.1515V59.6363H144.121H139.152V54.6667V49.697H136.667H134.182V47.2122V44.7273H136.667H139.152V42.2424V39.7576H136.667H134.182V42.2424V44.7273H131.697H129.212V42.2424V39.7576H124.243H119.273V37.2728V34.7879H121.758H124.243V32.303V29.8182H121.758H119.273V32.303V34.7879H116.788H114.303V32.303V29.8182H111.818H109.333V27.3333V24.8485H114.303H119.273V22.3637V19.8788H121.758H124.243V14.9091V9.93942H121.758H119.273V14.9091V19.8788H116.788H114.303V17.3939V14.9091H111.818H109.333V9.93942V4.96969H114.303H119.273V2.48484V0H111.818H104.363V4.96969V9.93942H101.879H99.3942V12.4243V14.9091H104.363H109.333V17.3939V19.8788H101.879H94.4242V12.4243V4.96969H91.9392H89.4542V9.93942V14.9091H82H74.5454V12.4243V9.93942H72.0606H69.5758V7.45455V4.96969H74.5454H79.515V7.45455V9.93942H82H84.485V4.96969V0H77.0303H69.5758V2.48484V4.96969H67.0909H64.6061V2.48484V0H62.1213H59.6363V2.48484ZM84.485 22.3637V24.8485H86.97H89.4542V29.8182V34.7879H86.97H84.485V29.8182V24.8485H79.515H74.5454V22.3637V19.8788H79.515H84.485V22.3637ZM99.3942 29.8182V34.7879H101.879H104.363V32.303V29.8182H106.848H109.333V32.303V34.7879H111.818H114.303V42.2424V49.697H111.818H109.333V52.1818V54.6667H106.848H104.363V49.697V44.7273H101.879H99.3942V42.2424V39.7576H96.9092H94.4242V32.303V24.8485H96.9092H99.3942V29.8182ZM49.697 32.303V34.7879H47.2121H44.7273V32.303V29.8182H47.2121H49.697V32.303ZM59.6363 32.303V34.7879H57.1515H54.6667V32.303V29.8182H57.1515H59.6363V32.303ZM54.6667 42.2424V44.7273H57.1515H59.6363V47.2122V49.697H62.1213H64.6061V52.1818V54.6667H62.1213H59.6363V59.6363V64.6061H62.1213H64.6061V62.1213V59.6363H67.0909H69.5758V57.1515V54.6667H72.0606H74.5454V52.1818V49.697H79.515H84.485V47.2122V44.7273H82H79.515V42.2424V39.7576H84.485H89.4542V42.2424V44.7273H91.9392H94.4242V47.2122V49.697H96.9092H99.3942V52.1818V54.6667H96.9092H94.4242V62.1213V69.5758H96.9092H99.3942V64.6061V59.6363H104.363H109.333V62.1213V64.6061H111.818H114.303V62.1213V59.6363H119.273H124.243V62.1213V64.6061H126.727H129.212V67.0909V69.5758H126.727H124.243V72.0606V74.5455H129.212H134.182V79.515V84.485H139.152H144.121V86.97V89.4542H139.152H134.182V91.9392V94.4242H136.667H139.152V96.9092V99.3942H136.667H134.182V101.879V104.363H131.697H129.212V106.848V109.333H126.727H124.243V111.818V114.303H126.727H129.212V116.788V119.273H121.758H114.303V114.303V109.333H111.818H109.333V111.818V114.303H106.848H104.363V111.818V109.333H106.848H109.333V106.848V104.363H106.848H104.363V101.879V99.3942H106.848H109.333V101.879V104.363H111.818H114.303V106.848V109.333H119.273H124.243V104.363V99.3942H121.758H119.273V96.9092V94.4242H116.788H114.303V91.9392V89.4542H111.818H109.333V86.97V84.485H106.848H104.363V82V79.515H101.879H99.3942V82V84.485H96.9092H94.4242V86.97V89.4542H89.4542H84.485V86.97V84.485H89.4542H94.4242V79.515V74.5455H89.4542H84.485V77.0303V79.515H79.515H74.5454V82V84.485H67.0909H59.6363V79.515V74.5455H62.1213H64.6061V72.0606V69.5758H59.6363H54.6667V72.0606V74.5455H49.697H44.7273V69.5758V64.6061H49.697H54.6667V62.1213V59.6363H42.2424H29.8182V62.1213V64.6061H34.7879H39.7576V67.0909V69.5758H34.7879H29.8182V72.0606V74.5455H27.3333H24.8485V77.0303V79.515H22.3637H19.8788V82V84.485H22.3637H24.8485V86.97V89.4542H22.3637H19.8788V91.9392V94.4242H17.3939H14.9091V91.9392V89.4542H17.3939H19.8788V86.97V84.485H17.3939H14.9091V82V79.515H12.4242H9.93941V77.0303V74.5455H7.45454H4.9697V69.5758V64.6061H7.45454H9.93941V67.0909V69.5758H14.9091H19.8788V64.6061V59.6363H17.3939H14.9091V57.1515V54.6667H17.3939H19.8788V57.1515V59.6363H24.8485H29.8182V57.1515V54.6667H34.7879H39.7576V52.1818V49.697H42.2424H44.7273V47.2122V44.7273H47.2121H49.697V42.2424V39.7576H52.1818H54.6667V42.2424ZM19.8788 47.2122V49.697H17.3939H14.9091V47.2122V44.7273H17.3939H19.8788V47.2122ZM154.061 52.1818V54.6667H151.576H149.091V52.1818V49.697H151.576H154.061V52.1818ZM9.93941 86.97V89.4542H7.45454H4.9697V86.97V84.485H7.45454H9.93941V86.97ZM79.515 96.9092V99.3942H74.5454H69.5758V96.9092V94.4242H74.5454H79.515V96.9092ZM149.091 96.9092V99.3942H151.576H154.061V106.848V114.303H151.576H149.091V109.333V104.363H146.606H144.121V106.848V109.333H141.637H139.152V111.818V114.303H141.637H144.121V116.788V119.273H141.637H139.152V116.788V114.303H136.667H134.182V111.818V109.333H136.667H139.152V106.848V104.363H141.637H144.121V99.3942V94.4242H146.606H149.091V96.9092ZM34.7879 106.848V109.333H39.7576H44.7273V111.818V114.303H39.7576H34.7879V111.818V109.333H32.303H29.8182V106.848V104.363H32.303H34.7879V106.848ZM79.515 116.788V119.273H77.0303H74.5454V116.788V114.303H77.0303H79.515V116.788ZM139.152 131.697V139.152H131.697H124.243V131.697V124.243H131.697H139.152V131.697ZM79.515 131.697V134.182H82H84.485V139.152V144.121H86.97H89.4542V146.606V149.091H86.97H84.485V146.606V144.121H82H79.515V141.637V139.152H74.5454H69.5758V136.667V134.182H72.0606H74.5454V131.697V129.212H77.0303H79.515V131.697ZM99.3942 134.182V139.152H96.9092H94.4242V134.182V129.212H96.9092H99.3942V134.182ZM119.273 141.637V144.121H121.758H124.243V146.606V149.091H126.727H129.212V151.576V154.061H131.697H134.182V156.546V159.03H124.243H114.303V156.546V154.061H116.788H119.273V149.091V144.121H116.788H114.303V141.637V139.152H116.788H119.273V141.637Z" fill="white"/>
<path d="M104.363 37.273V39.758H106.848H109.333V37.273V34.7882H106.848H104.363V37.273Z" fill="white"/>
<path d="M49.6968 49.697V54.6667H52.1816H54.6665V49.697V44.7273H52.1816H49.6968V49.697Z" fill="white"/>
<path d="M84.485 52.1819V54.6668H82H79.515V57.1516V59.6364H74.5454H69.5757V62.1213V64.6062H74.5454H79.515V67.091V69.5759H77.0303H74.5454V72.0607V74.5455H72.0605H69.5757V77.0304V79.515H72.0605H74.5454V77.0304V74.5455H77.0303H79.515V72.0607V69.5759H82H84.485V67.091V64.6062H82H79.515V62.1213V59.6364H84.485H89.4542V57.1516V54.6668H91.9392H94.4242V52.1819V49.697H89.4542H84.485V52.1819Z" fill="white"/>
<path d="M24.8486 67.0908V69.5756H27.3335H29.8183V67.0908V64.606H27.3335H24.8486V67.0908Z" fill="white"/>
<path d="M114.303 67.0908V69.5757H109.333H104.363V74.5454V79.515H106.848H109.333V82V84.4849H111.818H114.303V86.9699V89.4541H116.787H119.272V86.9699V84.4849H116.787H114.303V82V79.515H111.818H109.333V77.0302V74.5454H111.818H114.303V72.0605V69.5757H116.787H119.272V67.0908V64.606H116.787H114.303V67.0908Z" fill="white"/>
<path d="M124.242 82.0001V84.4851H126.727H129.212V86.9693V89.4543H126.727H124.242V94.4243V99.3935H126.727H129.212V94.4243V89.4543H131.697H134.182V86.9693V84.4851H131.697H129.212V82.0001V79.5151H126.727H124.242V82.0001Z" fill="white"/>
<path d="M129.212 131.697V134.182H131.697H134.182V131.697V129.212H131.697H129.212V131.697Z" fill="white"/>
<path d="M129.212 17.3943V34.7882H146.606H164V17.3943V0.000366211H146.606H129.212V17.3943ZM159.03 17.3943V29.8186H146.606H134.182V17.3943V4.97006H146.606H159.03V17.3943Z" fill="white"/>
<path d="M139.152 17.394V24.8485H146.606H154.061V17.394V9.93945H146.606H139.152V17.394Z" fill="white"/>
<path d="M39.7581 7.45494V9.93976H42.2429H44.7277V7.45494V4.97009H42.2429H39.7581V7.45494Z" fill="white"/>
<path d="M9.93945 119.273V124.242H12.4244H14.9092V119.273V114.303H12.4244H9.93945V119.273Z" fill="white"/>
<path d="M89.4541 116.788V119.273H91.9391H94.4241V116.788V114.303H91.9391H89.4541V116.788Z" fill="white"/>
<path d="M0 146.606V164H17.3939H34.7879V146.606V129.213H17.3939H0V146.606ZM29.8182 146.606V159.03H17.3939H4.9697V146.606V134.182H17.3939H29.8182V146.606Z" fill="white"/>
<path d="M9.93945 146.606V154.06H17.394H24.8485V146.606V139.152H17.394H9.93945V146.606Z" fill="white"/>
<path d="M39.7581 151.576V164H42.2429H44.7277V159.03V154.061H49.6974H54.6671V159.03V164H57.152H59.6368V159.03V154.061H62.1216H64.6065V151.576V149.091H54.6671H44.7277V144.121V139.152H42.2429H39.7581V151.576Z" fill="white"/>
<path d="M49.6968 141.637V144.121H52.1816H54.6665V141.637V139.152H52.1816H49.6968V141.637Z" fill="white"/>
</svg>
