<svg width="193" height="61" viewBox="0 0 193 61" fill="none" xmlns="http://www.w3.org/2000/svg"><path d="M186.5 1H6.5A5.5 5.5 0 001 6.5v48A5.5 5.5 0 006.5 60h180a5.5 5.5 0 005.5-5.5v-48a5.5 5.5 0 00-5.5-5.5z" stroke="#fff"/><path d="M66.564 17.108c.552.136.984.384 1.296.744.32.36.48.792.48 1.296 0 .488-.152.916-.456 1.284-.304.368-.708.652-1.212.852a4.58 4.58 0 01-1.644.288c-.56 0-1.112-.088-1.656-.264a4.563 4.563 0 01-1.452-.816l.324-.636c.368.312.788.552 1.26.72.472.16.948.24 1.428.24.456 0 .876-.072 1.26-.216.384-.144.688-.348.912-.612.232-.272.348-.592.348-.96 0-.488-.192-.864-.576-1.128-.384-.264-.924-.396-1.62-.396h-1.8v-.72h1.752c.592 0 1.052-.124 1.38-.372.336-.256.504-.608.504-1.056 0-.496-.212-.884-.636-1.164-.424-.288-.956-.432-1.596-.432-.4 0-.804.06-1.212.18a4.315 4.315 0 00-1.164.516l-.3-.732a5.18 5.18 0 012.7-.744 4.26 4.26 0 011.56.276c.472.184.844.448 1.116.792.28.344.42.748.42 1.212 0 .448-.124.836-.372 1.164-.248.32-.596.548-1.044.684zm5.949-1.968c.824 0 1.456.208 1.896.624.44.408.66 1.016.66 1.824V21.5h-.816v-.984a1.947 1.947 0 01-.852.768c-.368.184-.808.276-1.32.276-.704 0-1.264-.168-1.68-.504-.416-.336-.624-.78-.624-1.332 0-.536.192-.968.576-1.296.392-.328 1.012-.492 1.86-.492h2.004v-.384c0-.544-.152-.956-.456-1.236-.304-.288-.748-.432-1.332-.432-.4 0-.784.068-1.152.204a2.822 2.822 0 00-.948.54l-.384-.636c.32-.272.704-.48 1.152-.624.448-.152.92-.228 1.416-.228zm-.3 5.748c.48 0 .892-.108 1.236-.324.344-.224.6-.544.768-.96v-1.032h-1.98c-1.08 0-1.62.376-1.62 1.128 0 .368.14.66.42.876.28.208.672.312 1.176.312zm9.144-2.652c.856.2 1.284.716 1.284 1.548 0 .552-.204.976-.612 1.272-.408.296-1.016.444-1.824.444h-2.868v-6.312h2.784c.72 0 1.284.14 1.692.42.408.28.612.68.612 1.2 0 .344-.096.64-.288.888-.184.24-.444.42-.78.54zm-3.192-.24h1.896c.488 0 .86-.092 1.116-.276.264-.184.396-.452.396-.804 0-.352-.132-.616-.396-.792-.256-.176-.628-.264-1.116-.264h-1.896v2.136zm2.004 2.832c.544 0 .952-.088 1.224-.264.272-.176.408-.452.408-.828 0-.376-.124-.652-.372-.828-.248-.184-.64-.276-1.176-.276h-2.088v2.196h2.004zm6.64-5.688c.825 0 1.457.208 1.897.624.44.408.66 1.016.66 1.824V21.5h-.816v-.984a1.947 1.947 0 01-.852.768c-.368.184-.808.276-1.32.276-.704 0-1.264-.168-1.68-.504-.416-.336-.624-.78-.624-1.332 0-.536.192-.968.576-1.296.392-.328 1.012-.492 1.86-.492h2.004v-.384c0-.544-.152-.956-.456-1.236-.304-.288-.748-.432-1.332-.432-.4 0-.784.068-1.152.204a2.822 2.822 0 00-.948.54l-.384-.636c.32-.272.704-.48 1.152-.624.448-.152.92-.228 1.416-.228zm-.3 5.748c.48 0 .893-.108 1.237-.324.344-.224.6-.544.768-.96v-1.032h-1.98c-1.08 0-1.62.376-1.62 1.128 0 .368.14.66.42.876.28.208.672.312 1.176.312zm5.125-5.7h.852v2.796h3.972v-2.796h.852V21.5h-.852v-2.784h-3.972V21.5h-.852v-6.312zm12.538.756h-2.388V21.5h-.852v-5.556h-2.389v-.756h5.629v.756zm3.403-.804c.824 0 1.456.208 1.896.624.44.408.66 1.016.66 1.824V21.5h-.816v-.984a1.947 1.947 0 01-.852.768c-.368.184-.808.276-1.32.276-.704 0-1.264-.168-1.68-.504-.416-.336-.624-.78-.624-1.332 0-.536.192-.968.576-1.296.392-.328 1.012-.492 1.86-.492h2.004v-.384c0-.544-.152-.956-.456-1.236-.304-.288-.748-.432-1.332-.432-.4 0-.784.068-1.152.204a2.822 2.822 0 00-.948.54l-.384-.636c.32-.272.704-.48 1.152-.624.448-.152.92-.228 1.416-.228zm-.3 5.748c.48 0 .892-.108 1.236-.324.344-.224.6-.544.768-.96v-1.032h-1.98c-1.08 0-1.62.376-1.62 1.128 0 .368.14.66.42.876.28.208.672.312 1.176.312zm10.657-2.196h-1.368V21.5h-.852v-2.808h-1.368l-1.932 2.808h-1.02l2.268-3.252-2.088-3.06h.924l1.848 2.772h1.368v-2.772h.852v2.772h1.368l1.86-2.772h.924l-2.088 3.072 2.268 3.24h-1.02l-1.944-2.808zm4.382-3.504h.852v5.016l4.212-5.016h.756V21.5h-.852v-5.016l-4.2 5.016h-.768v-6.312zm12.701.756h-2.388V21.5h-.852v-5.556h-2.388v-.756h5.628v.756zm1.232-.756h.852v5.016l4.212-5.016h.756V21.5h-.852v-5.016l-4.2 5.016h-.768v-6.312zm15.423 3.048c.856.2 1.284.716 1.284 1.548 0 .552-.204.976-.612 1.272-.408.296-1.016.444-1.824.444h-2.868v-6.312h2.784c.72 0 1.284.14 1.692.42.408.28.612.68.612 1.2 0 .344-.096.64-.288.888-.184.24-.444.42-.78.54zm-3.192-.24h1.896c.488 0 .86-.092 1.116-.276.264-.184.396-.452.396-.804 0-.352-.132-.616-.396-.792-.256-.176-.628-.264-1.116-.264h-1.896v2.136zm2.004 2.832c.544 0 .952-.088 1.224-.264.272-.176.408-.452.408-.828 0-.376-.124-.652-.372-.828-.248-.184-.64-.276-1.176-.276h-2.088v2.196h2.004zm-105.17 9.2c-.036-4.022 3.297-5.978 3.449-6.07-1.888-2.748-4.813-3.123-5.841-3.153-2.458-.259-4.841 1.468-6.093 1.468-1.276 0-3.204-1.443-5.281-1.4-2.674.04-5.175 1.586-6.546 3.987-2.831 4.894-.72 12.087 1.992 16.044 1.357 1.939 2.942 4.101 5.017 4.025 2.03-.082 2.788-1.291 5.238-1.291 2.427 0 3.14 1.29 5.255 1.242 2.18-.033 3.55-1.946 4.86-3.901 1.568-2.22 2.197-4.408 2.222-4.52-.05-.018-4.23-1.613-4.272-6.431zm-3.998-11.826c1.092-1.364 1.84-3.22 1.632-5.102-1.58.07-3.557 1.092-4.695 2.426-1.007 1.175-1.906 3.102-1.674 4.913 1.776.132 3.598-.895 4.737-2.237zM74.716 44.65h-2.837l-1.554-4.877h-5.402l-1.48 4.877H60.68l5.353-16.604h3.305l5.377 16.604zm-4.86-6.923l-1.405-4.336c-.149-.443-.429-1.486-.838-3.128h-.05c-.165.706-.429 1.75-.79 3.128l-1.382 4.336h4.465zm18.599.79c0 2.036-.554 3.645-1.662 4.827-.992 1.052-2.225 1.577-3.695 1.577-1.588 0-2.73-.565-3.423-1.698v6.282h-2.663V36.612c0-1.278-.034-2.59-.099-3.935h2.342l.149 1.898h.05c.888-1.43 2.236-2.145 4.045-2.145 1.414 0 2.595.558 3.539 1.675.943 1.119 1.417 2.589 1.417 4.412zm-2.714.097c0-1.165-.262-2.126-.79-2.884-.575-.787-1.348-1.181-2.318-1.181-.657 0-1.254.22-1.787.652a3.029 3.029 0 00-1.049 1.713 3.478 3.478 0 00-.123.81v1.998c0 .87.267 1.604.802 2.206.534.599 1.23.9 2.084.9 1.003 0 1.783-.389 2.342-1.159.56-.772.84-1.79.84-3.055zm16.501-.097c0 2.036-.553 3.645-1.661 4.827-.993 1.052-2.225 1.577-3.697 1.577-1.587 0-2.73-.565-3.422-1.698v6.282h-2.664V36.612c0-1.278-.034-2.59-.099-3.935h2.343l.148 1.898h.05c.887-1.43 2.235-2.145 4.045-2.145 1.413 0 2.594.558 3.541 1.675.942 1.119 1.416 2.589 1.416 4.412zm-2.714.097c0-1.165-.264-2.126-.791-2.884-.576-.787-1.347-1.181-2.316-1.181-.657 0-1.254.22-1.79.652-.535.437-.883 1.007-1.047 1.713-.081.33-.125.598-.125.81v1.998c0 .87.269 1.604.8 2.206.535.597 1.23.9 2.087.9 1.004 0 1.785-.389 2.342-1.159.56-.772.84-1.79.84-3.055zm18.13 1.379c0 1.413-.495 2.562-1.478 3.45-1.082.968-2.592 1.453-4.529 1.453-1.788 0-3.223-.344-4.304-1.034l.616-2.218c1.168.692 2.45 1.036 3.847 1.036 1.004 0 1.785-.227 2.342-.678.559-.451.841-1.055.841-1.809 0-.674-.233-1.24-.692-1.7-.461-.46-1.223-.887-2.294-1.28-2.91-1.084-4.367-2.67-4.367-4.757 0-1.362.515-2.478 1.542-3.35 1.027-.87 2.388-1.306 4.082-1.306 1.513 0 2.773.263 3.774.788l-.668 2.169c-.942-.509-2.005-.764-3.194-.764-.94 0-1.677.231-2.204.69-.444.41-.668.911-.668 1.505 0 .655.256 1.2.765 1.626.443.393 1.25.821 2.416 1.28 1.432.577 2.484 1.248 3.157 2.019.678.771 1.016 1.733 1.016 2.88zm8.828-5.32h-2.936v5.814c0 1.478.517 2.215 1.554 2.215.476 0 .871-.04 1.183-.123l.074 2.02c-.525.196-1.215.294-2.071.294-1.052 0-1.874-.32-2.467-.962-.591-.64-.889-1.715-.889-3.227v-6.035h-1.748v-1.997h1.748V30.48l2.616-.788v2.98h2.936v2.002zm13.219 3.892c0 1.84-.527 3.351-1.579 4.533-1.1 1.217-2.564 1.823-4.39 1.823-1.761 0-3.161-.583-4.206-1.747-1.044-1.166-1.566-2.636-1.566-4.41 0-1.855.539-3.374 1.615-4.556 1.078-1.183 2.53-1.774 4.355-1.774 1.759 0 3.172.584 4.241 1.75 1.022 1.13 1.53 2.59 1.53 4.381zm-2.761.061c0-1.096-.237-2.037-.713-2.825-.558-.95-1.358-1.425-2.393-1.425-1.067 0-1.885.475-2.443 1.425-.477.788-.714 1.745-.714 2.875 0 1.098.237 2.041.714 2.826.576.951 1.38 1.426 2.42 1.426 1.018 0 1.817-.485 2.394-1.45.489-.805.735-1.752.735-2.852zm11.422-3.61a4.632 4.632 0 00-.839-.073c-.937 0-1.662.352-2.172 1.06-.442.624-.664 1.413-.664 2.365v6.282h-2.663v-8.202a84.592 84.592 0 00-.078-3.77h2.32l.097 2.291h.074c.282-.787.725-1.422 1.332-1.898a3.221 3.221 0 011.925-.64c.246 0 .468.017.666.048l.002 2.538zm11.911 3.081c.007.405-.025.809-.097 1.207h-7.99c.03 1.183.417 2.088 1.159 2.712.674.557 1.544.836 2.614.836 1.183 0 2.262-.187 3.233-.565l.417 1.845c-1.134.495-2.474.74-4.019.74-1.859 0-3.318-.546-4.38-1.637-1.059-1.091-1.59-2.559-1.59-4.396 0-1.805.494-3.308 1.482-4.507 1.034-1.28 2.432-1.92 4.191-1.92 1.727 0 3.035.64 3.924 1.92.703 1.014 1.056 2.272 1.056 3.765zm-2.539-.69c.019-.79-.156-1.47-.517-2.045-.461-.74-1.171-1.11-2.122-1.11-.87 0-1.58.36-2.119 1.084-.444.575-.708 1.267-.789 2.069l5.547.002z" fill="#fff"/></svg>