<svg width="137" height="70" viewBox="0 0 137 70" fill="none" xmlns="http://www.w3.org/2000/svg"><path d="M38.001 70V55.49h-4.608V0H8.956L6.609 46.52c-.174 3.781-.609 6.596-2.696 8.97H0V70h6.522v-8.442h24.87V70h6.61zM15.218 6.244h11.305V55.49H10.435c1.913-2.023 2.522-4.66 2.783-9.058l2-40.188zM43.937 0v61.558h6.783V37.286h6c9.653 0 14.174-5.1 14.174-14.861v-7.387C70.894 5.716 66.807 0 57.242 0H43.937zm6.783 31.13V6.245h6.522c4.957 0 6.957 2.814 6.957 8.442v8.178c0 5.892-2.435 8.267-7.479 8.267h-6zM76.207 0v61.558h6.783V37.286h6c9.653 0 14.175-5.1 14.175-14.861v-7.387C103.165 5.716 99.077 0 89.512 0H76.207zm6.783 31.13V6.245h6.522c4.957 0 6.957 2.814 6.957 8.442v8.178c0 5.892-2.435 8.267-7.479 8.267h-6zm47.227-24.886v55.314H137V0h-28.523v61.558h6.783V6.244h14.957z" fill="#BEDAFF"/></svg>