<svg width="193" height="61" viewBox="0 0 193 61" fill="none" xmlns="http://www.w3.org/2000/svg"><path d="M186.544 1H6.5A5.5 5.5 0 001 6.5v48A5.5 5.5 0 006.5 60h180.044a5.5 5.5 0 005.5-5.5v-48a5.5 5.5 0 00-5.5-5.5z" stroke="#fff"/><path d="M66.564 17.108c.552.136.984.384 1.296.744.32.36.48.792.48 1.296 0 .488-.152.916-.456 1.284-.304.368-.708.652-1.212.852a4.58 4.58 0 01-1.644.288c-.56 0-1.112-.088-1.656-.264a4.563 4.563 0 01-1.452-.816l.324-.636c.368.312.788.552 1.26.72.472.16.948.24 1.428.24.456 0 .876-.072 1.26-.216.384-.144.688-.348.912-.612.232-.272.348-.592.348-.96 0-.488-.192-.864-.576-1.128-.384-.264-.924-.396-1.62-.396h-1.8v-.72h1.752c.592 0 1.052-.124 1.38-.372.336-.256.504-.608.504-1.056 0-.496-.212-.884-.636-1.164-.424-.288-.956-.432-1.596-.432-.4 0-.804.06-1.212.18a4.315 4.315 0 00-1.164.516l-.3-.732a5.18 5.18 0 012.7-.744 4.26 4.26 0 011.56.276c.472.184.844.448 1.116.792.28.344.42.748.42 1.212 0 .448-.124.836-.372 1.164-.248.32-.596.548-1.044.684zm5.949-1.968c.824 0 1.456.208 1.896.624.44.408.66 1.016.66 1.824V21.5h-.816v-.984a1.947 1.947 0 01-.852.768c-.368.184-.808.276-1.32.276-.704 0-1.264-.168-1.68-.504-.416-.336-.624-.78-.624-1.332 0-.536.192-.968.576-1.296.392-.328 1.012-.492 1.86-.492h2.004v-.384c0-.544-.152-.956-.456-1.236-.304-.288-.748-.432-1.332-.432-.4 0-.784.068-1.152.204a2.822 2.822 0 00-.948.54l-.384-.636c.32-.272.704-.48 1.152-.624.448-.152.92-.228 1.416-.228zm-.3 5.748c.48 0 .892-.108 1.236-.324.344-.224.6-.544.768-.96v-1.032h-1.98c-1.08 0-1.62.376-1.62 1.128 0 .368.14.66.42.876.28.208.672.312 1.176.312zm9.144-2.652c.856.2 1.284.716 1.284 1.548 0 .552-.204.976-.612 1.272-.408.296-1.016.444-1.824.444h-2.868v-6.312h2.784c.72 0 1.284.14 1.692.42.408.28.612.68.612 1.2 0 .344-.096.64-.288.888-.184.24-.444.42-.78.54zm-3.192-.24h1.896c.488 0 .86-.092 1.116-.276.264-.184.396-.452.396-.804 0-.352-.132-.616-.396-.792-.256-.176-.628-.264-1.116-.264h-1.896v2.136zm2.004 2.832c.544 0 .952-.088 1.224-.264.272-.176.408-.452.408-.828 0-.376-.124-.652-.372-.828-.248-.184-.64-.276-1.176-.276h-2.088v2.196h2.004zm6.64-5.688c.825 0 1.457.208 1.897.624.44.408.66 1.016.66 1.824V21.5h-.816v-.984a1.947 1.947 0 01-.852.768c-.368.184-.808.276-1.32.276-.704 0-1.264-.168-1.68-.504-.416-.336-.624-.78-.624-1.332 0-.536.192-.968.576-1.296.392-.328 1.012-.492 1.86-.492h2.004v-.384c0-.544-.152-.956-.456-1.236-.304-.288-.748-.432-1.332-.432-.4 0-.784.068-1.152.204a2.822 2.822 0 00-.948.54l-.384-.636c.32-.272.704-.48 1.152-.624.448-.152.92-.228 1.416-.228zm-.3 5.748c.48 0 .893-.108 1.237-.324.344-.224.6-.544.768-.96v-1.032h-1.98c-1.08 0-1.62.376-1.62 1.128 0 .368.14.66.42.876.28.208.672.312 1.176.312zm5.125-5.7h.852v2.796h3.972v-2.796h.852V21.5h-.852v-2.784h-3.972V21.5h-.852v-6.312zm12.538.756h-2.388V21.5h-.852v-5.556h-2.389v-.756h5.629v.756zm3.403-.804c.824 0 1.456.208 1.896.624.44.408.66 1.016.66 1.824V21.5h-.816v-.984a1.947 1.947 0 01-.852.768c-.368.184-.808.276-1.32.276-.704 0-1.264-.168-1.68-.504-.416-.336-.624-.78-.624-1.332 0-.536.192-.968.576-1.296.392-.328 1.012-.492 1.86-.492h2.004v-.384c0-.544-.152-.956-.456-1.236-.304-.288-.748-.432-1.332-.432-.4 0-.784.068-1.152.204a2.822 2.822 0 00-.948.54l-.384-.636c.32-.272.704-.48 1.152-.624.448-.152.92-.228 1.416-.228zm-.3 5.748c.48 0 .892-.108 1.236-.324.344-.224.6-.544.768-.96v-1.032h-1.98c-1.08 0-1.62.376-1.62 1.128 0 .368.14.66.42.876.28.208.672.312 1.176.312zm10.657-2.196h-1.368V21.5h-.852v-2.808h-1.368l-1.932 2.808h-1.02l2.268-3.252-2.088-3.06h.924l1.848 2.772h1.368v-2.772h.852v2.772h1.368l1.86-2.772h.924l-2.088 3.072 2.268 3.24h-1.02l-1.944-2.808zm4.382-3.504h.852v5.016l4.212-5.016h.756V21.5h-.852v-5.016l-4.2 5.016h-.768v-6.312zm12.701.756h-2.388V21.5h-.852v-5.556h-2.388v-.756h5.628v.756zm1.232-.756h.852v5.016l4.212-5.016h.756V21.5h-.852v-5.016l-4.2 5.016h-.768v-6.312zm15.423 3.048c.856.2 1.284.716 1.284 1.548 0 .552-.204.976-.612 1.272-.408.296-1.016.444-1.824.444h-2.868v-6.312h2.784c.72 0 1.284.14 1.692.42.408.28.612.68.612 1.2 0 .344-.096.64-.288.888-.184.24-.444.42-.78.54zm-3.192-.24h1.896c.488 0 .86-.092 1.116-.276.264-.184.396-.452.396-.804 0-.352-.132-.616-.396-.792-.256-.176-.628-.264-1.116-.264h-1.896v2.136zm2.004 2.832c.544 0 .952-.088 1.224-.264.272-.176.408-.452.408-.828 0-.376-.124-.652-.372-.828-.248-.184-.64-.276-1.176-.276h-2.088v2.196h2.004z" fill="#fff"/><path fill-rule="evenodd" clip-rule="evenodd" d="M97.305 33.353c-3.154 0-5.711 2.3-5.711 5.472 0 3.144 2.573 5.472 5.71 5.472 3.155 0 5.711-2.316 5.711-5.472 0-3.172-2.556-5.472-5.71-5.472zm0 8.776c-1.726 0-3.211-1.373-3.211-3.317 0-1.972 1.488-3.316 3.21-3.316 1.726 0 3.211 1.344 3.211 3.316.004 1.957-1.485 3.317-3.21 3.317zm-12.46-8.776c-3.154 0-5.71 2.3-5.71 5.472 0 3.144 2.573 5.472 5.71 5.472 3.154 0 5.711-2.316 5.711-5.472 0-3.172-2.56-5.472-5.71-5.472zm0 8.776c-1.725 0-3.21-1.373-3.21-3.317 0-1.972 1.488-3.316 3.21-3.316 1.726 0 3.211 1.344 3.211 3.316 0 1.957-1.485 3.317-3.21 3.317zM70.02 35.024v2.316h5.784c-.177 1.3-.624 2.258-1.309 2.916-.847.815-2.156 1.7-4.462 1.7-3.555 0-6.335-2.759-6.335-6.175s2.78-6.174 6.335-6.174c1.92 0 3.317.728 4.355 1.658l1.71-1.642c-1.442-1.328-3.362-2.345-6.052-2.345-4.876 0-8.968 3.817-8.968 8.49 0 4.687 4.089 8.49 8.968 8.49 2.634 0 4.61-.827 6.172-2.386 1.592-1.53 2.096-3.688 2.096-5.43 0-.542-.044-1.03-.134-1.444h-8.164c.004-.003.004.026.004.026zm60.641 1.803c-.478-1.229-1.919-3.487-4.877-3.487-2.93 0-5.366 2.217-5.366 5.472 0 3.073 2.409 5.473 5.65 5.473a5.701 5.701 0 004.743-2.429l-1.933-1.244c-.64.914-1.531 1.514-2.796 1.514-1.279 0-2.173-.558-2.767-1.658l7.613-3.032c0 .004-.267-.61-.267-.61zm-7.764 1.828c-.06-2.114 1.709-3.188 2.974-3.188.998 0 1.829.471 2.113 1.158l-5.087 2.03zm-6.184 5.302h2.5V27.881h-2.5v16.076zm-4.105-9.388h-.091c-.564-.645-1.635-1.229-3.003-1.229-2.841 0-5.457 2.403-5.457 5.488 0 3.073 2.603 5.447 5.457 5.447 1.351 0 2.439-.587 3.003-1.245h.091v.786c0 2.088-1.162 3.214-3.034 3.214-1.532 0-2.483-1.058-2.871-1.944l-2.172.873a5.43 5.43 0 005.039 3.23c2.931 0 5.414-1.658 5.414-5.703v-9.819h-2.363v.902h-.013zm-2.871 7.56c-1.725 0-3.167-1.386-3.167-3.3 0-1.932 1.442-3.33 3.167-3.33 1.709 0 3.034 1.414 3.034 3.33.017 1.914-1.322 3.3-3.034 3.3zm32.629-14.248h-5.978v16.076h2.5V37.87h3.481c2.767 0 5.487-1.927 5.487-4.987s-2.71-5.001-5.49-5.001zm.073 7.743h-3.554v-5.517h3.554c1.873 0 2.931 1.485 2.931 2.758 0 1.261-1.072 2.759-2.931 2.759zm15.437-2.3c-1.816 0-3.688.773-4.463 2.457l2.216.886c.478-.886 1.352-1.187 2.277-1.187 1.295 0 2.603.744 2.633 2.072v.17c-.447-.244-1.428-.616-2.603-.616-2.393 0-4.82 1.257-4.82 3.615 0 2.159 1.963 3.544 4.149 3.544 1.679 0 2.603-.728 3.181-1.571h.09v1.244h2.41V37.78c0-2.867-2.217-4.455-5.07-4.455zm-.314 8.805c-.818 0-1.963-.385-1.963-1.373 0-1.244 1.429-1.716 2.647-1.716 1.102 0 1.622.228 2.276.542-.18 1.444-1.448 2.534-2.96 2.547zm14.175-8.462l-2.871 6.974h-.09l-2.973-6.974h-2.691l4.463 9.748-2.543 5.418h2.603l6.865-15.166h-2.763zm-22.502 10.29h2.499V27.881h-2.499v16.076z" fill="#fff"/><path d="M22.92 13.044c-1.33-.736-2.891-.719-4.213.01l15.49 14.29 5.204-5.204-16.48-9.096zm-5.762 1.472a3.963 3.963 0 00-.595 2.076v25.809c0 .727.198 1.42.555 2.025l15.578-15.578-15.538-14.332zm29.143 11.432l-4.963-2.739-5.578 5.576 6.836 6.304 3.707-2.046c1.335-.74 2.134-2.065 2.134-3.549-.002-1.483-.8-2.809-2.136-3.546zM34.258 30.29l-15.62 15.619a4.37 4.37 0 002.17.59c.722 0 1.448-.182 2.114-.55l17.715-9.776-6.38-5.884z" fill="#fff"/></svg>