<svg width="94" height="100" viewBox="0 0 94 100" fill="none" xmlns="http://www.w3.org/2000/svg"><rect x=".5" y=".5" width="93" height="99" rx="14.898" fill="#fff" stroke="#fff"/><mask id="a" maskUnits="userSpaceOnUse" x="1" y="1" width="92" height="98"><rect x="1" y="1" width="92" height="98" rx="14.398" fill="#fff"/></mask><g mask="url(#a)"><path fill-rule="evenodd" clip-rule="evenodd" d="M1 1h92v98H1V1z" fill="#0C6BE7"/><path d="M31.698 66.089V59.06h-2.257V32.188H17.473l-1.15 22.53c-.085 1.83-.298 3.193-1.32 4.343h-1.917v7.028h3.195V62h12.18v4.089h3.237zM20.54 35.21h5.536v23.85h-7.879c.937-.98 1.235-2.257 1.363-4.386l.98-19.464zm14.065-3.023V62h3.322V50.245h2.939c4.727 0 6.942-2.47 6.942-7.197V39.47c0-4.514-2.002-7.282-6.687-7.282h-6.516zm3.322 15.076V35.211h3.194c2.428 0 3.407 1.363 3.407 4.089v3.96c0 2.854-1.192 4.004-3.662 4.004h-2.939zM50.41 32.187V62h3.322V50.245h2.938c4.728 0 6.942-2.47 6.942-7.197V39.47c0-4.514-2.001-7.282-6.686-7.282H50.41zm3.322 15.077V35.211h3.194c2.427 0 3.407 1.363 3.407 4.089v3.96c0 2.854-1.192 4.004-3.663 4.004h-2.938zm23.13-12.053V62h3.322V32.187h-13.97V62h3.322V35.211h7.326z" fill="#fff"/><path fill="url(#paint0_linear)" d="M-5 90H99v9H-5z"/></g><defs><linearGradient id="paint0_linear" x1="96.143" y1="83.443" x2="63.09" y2="116.13" gradientUnits="userSpaceOnUse"><stop stop-color="#FFC700"/><stop offset="1" stop-color="#68AAFF"/></linearGradient></defs></svg>