<svg width="164" height="164" viewBox="0 0 164 164" fill="none" xmlns="http://www.w3.org/2000/svg"><path d="M0 17.394v17.394h34.788V0H0v17.394zm29.818 0V29.82H4.97V4.97h24.848v12.424z" fill="#fff"/><path d="M9.94 17.394v7.455h14.908V9.939H9.939v7.455zM49.697 4.97v4.97h4.969V0h-4.969v4.97z" fill="#fff"/><path d="M59.636 2.485V4.97h4.97v4.969h-4.97v9.94h4.97v-9.94h4.97v4.97h4.969v4.97h-4.969v4.97h4.969v4.969h-4.969v4.97h4.969v-4.97h4.97v9.94h-4.97v9.939h-4.969v-4.97h-9.94v-9.94h4.97v-9.939h-9.94v4.97h-4.968v-9.94h4.97V14.91h-14.91v4.97h4.969v4.97h-4.969v9.939h4.969v4.97H29.818v4.968h4.97v4.97h-9.94v-9.94H0v9.94h14.909v4.97H9.94v4.969H4.97v4.97H0v14.909h4.97v4.97H0v14.909h4.97v4.969H0v19.88h4.97v-19.88h4.969v-4.969H4.97v-4.97h9.94v9.939h4.968v-9.939h4.97v-4.97h4.97v4.97h9.94v9.939h-4.97v-4.969h-9.94v9.939h4.97v4.97h4.97v4.97h-9.94v-4.97H19.88v4.97h4.97v4.97h9.939v-4.97h14.908V99.394h4.97v-4.97H39.758v-4.97h-9.94v-4.969h4.97v-4.97h-4.97v-4.969h9.94v4.968h4.969v9.94h4.97v-9.94h4.97v4.97h4.969v4.97h4.97v4.97h-4.97v9.939h4.97v-4.969h4.97v4.969h9.939v-4.969h4.97v4.969h4.969v-4.969h4.97v-9.94h9.939v9.94h-4.969v4.969h-4.97v4.97h4.97v4.97h4.969v4.97h4.97v4.97h9.94v4.969h-4.97v4.97h-4.97v-4.97h-4.97v-4.969H89.454v9.939h-4.969v-24.849h-9.94v4.97h-4.969v4.97h4.969v4.97H59.636v-9.94h4.97v-4.97h-9.94v14.91h-4.968v4.969h-4.97v-4.969h-4.97v9.939h14.909v-9.939h4.969v4.969h4.97v4.97h-4.97v9.939h4.97v-4.969h4.97v4.969h4.969v4.97h9.94v4.97h-4.97v4.969h-4.97v-4.969h-4.969v4.969h4.969V164h14.909v-9.939h4.97v-4.97h4.97v-9.939h9.939v4.969h-4.97v4.97h9.94v4.97H99.394V164h4.969v-4.97h4.97V164h29.819v-9.939h-4.97v-4.97h-4.97v-4.97h9.94v4.97h4.969v-4.97h4.97v9.94h-4.97V164h4.97v-4.97h4.97V164h4.969v-4.97h-4.969v-14.909h-4.97v-4.969h9.939v9.939H164v-14.909h-4.97v-4.97H164v-9.939h-4.97v9.939h-4.969v-4.969h-4.97v4.969h-4.97v-9.939h9.94v-4.97h4.969v-4.97H164v-4.97h-4.97v-4.969h-4.969v-4.97h4.969v-4.97H164v-4.969h-4.97v-4.97h-4.969v-4.969h4.969v-4.97H164v-4.97h-9.939v9.94h-4.97v4.968h4.97v14.91h-4.97v-9.939h-4.97v-4.97h-4.969v-4.969h-4.97v-9.94h-4.97v-4.97h-4.969v-4.969h-9.94v-4.97h19.879v9.94h4.97v4.968h9.939v-4.97h4.97v-4.968h4.969v-4.97H164v-4.97h-4.97v-4.969h-4.969v4.969h-4.97v-4.969h-4.97v4.969h4.97v4.97h-4.97v4.97h4.97v4.969h-9.939v-9.939h-4.97v-4.97h4.97v-4.969h-4.97v4.969h-4.97v-4.969h-9.939v-4.97h4.97v-4.97h-4.97v4.97h-4.97v-4.97h-4.97V24.85h9.94v-4.97h4.97V9.94h-4.97v9.94h-4.97v-4.97h-4.97V4.97h9.94V0h-14.91v9.94h-4.969v4.968h9.939v4.97H94.424V4.97h-4.97v9.94H74.545V9.938h-4.969V4.97h9.939v4.969h4.97V0H69.576v4.97h-4.97V0h-4.97v2.485zm24.849 19.879v2.485h4.969v9.939h-4.969v-9.94h-9.94V19.88h9.94v2.485zm14.91 7.454v4.97h4.968v-4.97h4.97v4.97h4.97v14.909h-4.97v4.97h-4.97v-9.94h-4.969v-4.969h-4.97V24.849h4.97v4.97zm-49.698 2.485v2.485h-4.97v-4.97h4.97v2.485zm9.94 0v2.485h-4.971v-4.97h4.97v2.485zm-4.97 9.94v2.484h4.969v4.97h4.97v4.97h-4.97v9.94h4.97v-4.971h4.97v-4.969h4.969v-4.97h9.94v-4.97h-4.97v-4.969h9.94v4.969h4.968v4.97h4.97v4.97h-4.97v14.909h4.97v-9.94h9.939v4.97h4.97v-4.97h9.94v4.97h4.97v4.97h-4.969v4.969h9.939v9.94h9.939v4.969h-9.939v4.97h4.97v4.97h-4.97v4.969h-4.97v4.97h-4.969v4.97h4.969v4.97h-14.909v-9.94h-4.97v4.97h-4.97v-4.97h4.97v-4.97h-4.97v-4.969h4.97v4.969h4.97v4.97h9.94v-9.939h-4.97v-4.97h-4.97v-4.97h-4.97v-4.969h-4.97v-4.97h-4.969v4.97h-4.97v4.969h-9.939v-4.969h9.94v-9.94h-9.94v4.97h-9.94v4.97H59.636v-9.94h4.97v-4.968h-9.94v4.968h-9.939v-9.939h9.94v-4.97H29.818v4.97h9.94v4.97h-9.94v4.969H24.85v4.97h-4.97v4.97h4.97v4.969h-4.97v4.97h-4.97v-4.97h4.97v-4.969h-4.97v-4.97H9.94v-4.969H4.97v-9.94h4.969v4.97h9.94v-9.94h-4.97v-4.969h4.97v4.969h9.94v-4.969h9.939v-4.97h4.969v-4.97h4.97v-4.969h4.97v2.484zm-34.788 4.97v2.484h-4.97v-4.97h4.97v2.485zm134.182 4.969v2.485h-4.97v-4.97h4.97v2.485zM9.939 86.97v2.484H4.97v-4.969h4.969v2.485zm69.576 9.94v2.484h-9.94v-4.97h9.94v2.485zm69.576 0v2.484h4.97v14.909h-4.97v-9.94h-4.97v4.97h-4.969v4.97h4.969v4.97h-4.969v-4.97h-4.97v-4.97h4.97v-4.97h4.969v-9.939h4.97v2.485zm-114.303 9.938v2.485h9.94v4.97h-9.94v-4.97h-4.97v-4.97h4.97v2.485zm44.727 9.94v2.485h-4.97v-4.97h4.97v2.485zm59.637 14.909v7.455h-14.909v-14.909h14.909v7.454zm-59.637 0v2.485h4.97v9.939h4.969v4.97h-4.969v-4.97h-4.97v-4.969h-9.94v-4.97h4.971v-4.97h4.97v2.485zm19.88 2.485v4.97h-4.971v-9.94h4.97v4.97zm19.878 7.455v2.484h4.97v4.97h4.969v4.97h4.97v4.969h-19.879v-4.969h4.97v-9.94h-4.97v-4.969h4.97v2.485z" fill="#fff"/><path d="M104.363 37.273v2.485h4.97v-4.97h-4.97v2.485zM49.697 49.697v4.97h4.969v-9.94h-4.969v4.97zm34.788 2.485v2.485h-4.97v4.969h-9.94v4.97h9.94v4.97h-4.97v4.969h-4.969v4.97h4.969v-4.969h4.97v-4.97h4.97v-4.97h-4.97v-4.97h9.94v-4.969h4.968v-4.97h-9.939v2.485zM24.849 67.09v2.486h4.969v-4.97H24.85v2.485zm89.454 0v2.486h-9.94v9.939h4.97v4.97h4.97v4.969h4.969v-4.969h-4.969v-4.97h-4.97v-4.97h4.97v-4.969h4.969v-4.97h-4.969v2.485zM124.242 82v2.485h4.97v4.969h-4.97v9.94h4.97v-9.94h4.97v-4.969h-4.97v-4.97h-4.97V82zm4.97 49.697v2.485h4.97v-4.97h-4.97v2.485zm0-114.303v17.394H164V0h-34.788v17.394zm29.818 0V29.82h-24.848V4.97h24.848v12.424z" fill="#fff"/><path d="M139.152 17.394v7.455h14.909V9.939h-14.909v7.455zM39.758 7.455V9.94h4.97V4.97h-4.97v2.485zM9.94 119.273v4.969h4.968v-9.939H9.94v4.97zm79.514-2.485v2.485h4.97v-4.97h-4.97v2.485zM0 146.606V164h34.788v-34.787H0v17.393zm29.818 0v12.424H4.97v-24.848h24.848v12.424z" fill="#fff"/><path d="M9.94 146.606v7.454h14.908v-14.908H9.939v7.454zm29.818 4.97V164h4.97v-9.939h9.94V164h4.968v-9.939h4.97v-4.97H44.727v-9.939h-4.968v12.424z" fill="#fff"/><path d="M49.697 141.637v2.484h4.969v-4.969h-4.969v2.485z" fill="#fff"/></svg>